<?xml version="1.0" standalone="no"?><!DOCTYPE svg PUBLIC "-//W3C//DTD SVG 1.1//EN" "http://www.w3.org/Graphics/SVG/1.1/DTD/svg11.dtd"><svg width="100%" height="100%" viewBox="0 0 600 1200" version="1.1" xmlns="http://www.w3.org/2000/svg" xmlns:xlink="http://www.w3.org/1999/xlink" xml:space="preserve" style="fill-rule:evenodd;clip-rule:evenodd;stroke-linejoin:round;stroke-miterlimit:1.41421;"><g><g opacity="0.800003"><rect x="-0.097" y="1.084" width="602.061" height="801.689" style="fill:#289dd8;fill-rule:nonzero;"/></g></g><g transform="matrix(4.16667,0,0,4.16667,-1535.36,-479.544)"><text x="377.06px" y="127.869px" style="font-family:'Avenir-Book';font-size:5.76px;fill:#fff;">&quot;S<tspan x="383.373px 386.423px 387.866px 389.309px 391.282px 392.944px 396.524px 399.787px 401.449px 403.963px 405.406px 407.068px 412.036px 413.479px 415.994px 420.962px 424.438px 426.952px 428.614px 431.877px 433.539px 434.982px 436.955px 438.617px 441.667px 443.329px 444.772px 447.822px 450.336px 451.998px 455.578px 458.841px 460.814px 462.257px 464.023px 467.286px 469.259px 470.702px 473.752px 476.266px 477.928px 479.59px 483.17px 486.433px 488.406px 489.849px 491.615px 494.878px 496.851px 498.294px 501.344px " y="127.869px 127.869px 127.869px 127.869px 127.869px 127.869px 127.869px 127.869px 127.869px 127.869px 127.869px 127.869px 127.869px 127.869px 127.869px 127.869px 127.869px 127.869px 127.869px 127.869px 127.869px 127.869px 127.869px 127.869px 127.869px 127.869px 127.869px 127.869px 127.869px 127.869px 127.869px 127.869px 127.869px 127.869px 127.869px 127.869px 127.869px 127.869px 127.869px 127.869px 127.869px 127.869px 127.869px 127.869px 127.869px 127.869px 127.869px 127.869px 127.869px 127.869px 127.869px ">alir de sí mismos e ir a las periferias, periferias</tspan></text><text x="377.06px" y="133.629px" style="font-family:'Avenir-Book';font-size:5.76px;fill:#fff;">ge<tspan x="383.903px 387.379px 390.959px 392.932px 395.982px 397.748px 399.191px 402.028px 405.078px 407.592px 409.254px 412.091px 413.753px 416.803px 418.465px 419.908px 422.958px 425.472px 427.134px 430.397px 433.234px 434.677px 437.191px 439.164px 442.427px 445.691px 448.528px 449.971px 453.021px 454.464px 457.727px 460.241px 461.903px 463.565px 467.145px 470.195px 472.168px 475.218px 476.88px 479.93px 483.193px 486.456px 489.719px 492.556px 493.999px 497.049px 499.022px " y="133.629px 133.629px 133.629px 133.629px 133.629px 133.629px 133.629px 133.629px 133.629px 133.629px 133.629px 133.629px 133.629px 133.629px 133.629px 133.629px 133.629px 133.629px 133.629px 133.629px 133.629px 133.629px 133.629px 133.629px 133.629px 133.629px 133.629px 133.629px 133.629px 133.629px 133.629px 133.629px 133.629px 133.629px 133.629px 133.629px 133.629px 133.629px 133.629px 133.629px 133.629px 133.629px 133.629px 133.629px 133.629px 133.629px 133.629px ">ográficas y a las existenciales, para anunciar </tspan>a</text><text x="377.06px" y="139.389px" style="font-family:'Avenir-Book';font-size:5.76px;fill:#fff;">Je<tspan x="383.16px 385.675px 388.938px 391.452px 393.114px 395.951px 397.613px 400.876px 403.926px 406.763px 410.026px 411.999px 413.661px 416.498px 419.974px 423.237px 426.713px 429.55px 432.813px 434.786px 436.448px 438.962px 442.226px 443.888px 448.856px 452.119px 455.382px 457.896px 460.946px 462.389px 465.652px 467.314px 468.976px " y="139.389px 139.389px 139.389px 139.389px 139.389px 139.389px 139.389px 139.389px 139.389px 139.389px 139.389px 139.389px 139.389px 139.389px 139.389px 139.389px 139.389px 139.389px 139.389px 139.389px 139.389px 139.389px 139.389px 139.389px 139.389px 139.389px 139.389px 139.389px 139.389px 139.389px 139.389px 139.389px 139.389px ">sús y hacer conocer su mensaje...</tspan>&quot;</text><text x="377.06px" y="145.149px" style="font-family:'Avenir-Black';font-size:5.76px;fill:#fff;">S.<tspan x="382.192px 385.559px 387.325px 389.09px 392.567px 394.972px 398.125px 401.492px 404.329px 405.887px 408.615px " y="145.149px 145.149px 145.149px 145.149px 145.149px 145.149px 145.149px 145.149px 145.149px 145.149px 145.149px ">S. Francisc</tspan>o</text></g><g transform="matrix(4.16667,0,0,4.16667,-1538.18,-350.698)"><text x="377.06px" y="127.869px" style="font-family:'Avenir-Book';font-size:5.76px;fill:#fff;">La<tspan x="383.051px 385.565px 387.227px 390.807px 392.78px 394.223px 397.486px 400.323px 401.766px 405.346px 408.396px 409.839px 413.102px 415.616px 417.278px 420.115px 421.558px 424.821px 428.401px 431.451px 435.031px 438.294px 440.809px 442.471px 446.05px 449.314px 450.757px 452.419px 455.998px 459.048px 460.491px 463.006px 464.668px 467.931px 470.981px 474.244px 475.906px 477.879px 481.142px 484.405px 485.848px 489.428px 492.904px 494.566px 497.829px " y="127.869px 127.869px 127.869px 127.869px 127.869px 127.869px 127.869px 127.869px 127.869px 127.869px 127.869px 127.869px 127.869px 127.869px 127.869px 127.869px 127.869px 127.869px 127.869px 127.869px 127.869px 127.869px 127.869px 127.869px 127.869px 127.869px 127.869px 127.869px 127.869px 127.869px 127.869px 127.869px 127.869px 127.869px 127.869px 127.869px 127.869px 127.869px 127.869px 127.869px 127.869px 127.869px 127.869px 127.869px 127.869px ">s principales ciudades del país han tenido un</tspan></text><text x="377.06px" y="133.629px" style="font-family:'Avenir-Book';font-size:5.76px;fill:#fff;">cr<tspan x="381.87px 385.133px 387.97px 389.413px 394.381px 395.824px 399.087px 402.35px 404.323px 407.8px 409.461px 413.041px 416.305px 421.273px 424.749px 428.329px 430.302px 433.352px 435.117px 436.56px 439.397px 442.874px 444.535px 447.372px 450.635px 452.608px 454.581px 456.024px 459.604px 461.047px 464.31px 467.787px 470.301px 473.777px 475.439px 477.101px 481.32px 484.37px " y="133.629px 133.629px 133.629px 133.629px 133.629px 133.629px 133.629px 133.629px 133.629px 133.629px 133.629px 133.629px 133.629px 133.629px 133.629px 133.629px 133.629px 133.629px 133.629px 133.629px 133.629px 133.629px 133.629px 133.629px 133.629px 133.629px 133.629px 133.629px 133.629px 133.629px 133.629px 133.629px 133.629px 133.629px 133.629px 133.629px 133.629px 133.629px ">ecimiento demográfico vertiginoso. Hay</tspan></text><text x="377.06px" y="139.389px" style="font-family:'Avenir-Book';font-size:5.76px;fill:#fff;">em<tspan x="385.291px 388.555px 390.527px 394.107px 397.371px 400.634px 403.471px 404.914px 407.964px 409.625px 413.205px 416.469px 418.13px 420.967px 424.444px 426.417px 429.996px 433.473px 436.736px 439.999px 442.513px 444.175px 447.438px 450.488px 454.068px 455.511px 457.484px 460.534px 463.371px 464.814px 468.291px 471.554px 474.604px 476.047px 479.31px " y="139.389px 139.389px 139.389px 139.389px 139.389px 139.389px 139.389px 139.389px 139.389px 139.389px 139.389px 139.389px 139.389px 139.389px 139.389px 139.389px 139.389px 139.389px 139.389px 139.389px 139.389px 139.389px 139.389px 139.389px 139.389px 139.389px 139.389px 139.389px 139.389px 139.389px 139.389px 139.389px 139.389px 139.389px 139.389px ">ergencia de cordones habitacionales</tspan></text><text x="377.06px" y="145.149px" style="font-family:'Avenir-Book';font-size:5.76px;fill:#fff;">“p<tspan x="383.69px 386.953px 388.926px 390.369px 392.135px 395.398px 397.371px 398.814px 401.651px 405.127px 407.641px 410.691px 412.353px 415.403px 416.846px 418.819px 421.869px 426.837px 430.1px 433.364px 435.336px 438.6px 440.261px 443.841px 447.318px 450.898px 452.341px 455.391px 458.971px 462.447px 464.961px " y="145.149px 145.149px 145.149px 145.149px 145.149px 145.149px 145.149px 145.149px 145.149px 145.149px 145.149px 145.149px 145.149px 145.149px 145.149px 145.149px 145.149px 145.149px 145.149px 145.149px 145.149px 145.149px 145.149px 145.149px 145.149px 145.149px 145.149px 145.149px 145.149px 145.149px 145.149px ">eriféricos” altamente poblados.</tspan></text></g><g transform="matrix(4.16667,0,0,4.16667,-1537.76,-214.845)"><text x="377.06px" y="127.869px" style="font-family:'Avenir-Book';font-size:5.76px;fill:#fff;">El<tspan x="381.979px 383.641px 386.478px 388.451px 391.714px 394.551px 395.994px 400.962px 402.405px 405.668px 408.932px 410.904px 414.381px 416.043px 419.623px 422.886px 424.548px 425.991px 429.041px 431.555px 433.217px 436.48px 438.453px 442.033px 445.296px 447.81px 449.472px 452.735px 456.212px 457.873px 461.137px 464.187px 465.848px 467.291px 470.871px " y="127.869px 127.869px 127.869px 127.869px 127.869px 127.869px 127.869px 127.869px 127.869px 127.869px 127.869px 127.869px 127.869px 127.869px 127.869px 127.869px 127.869px 127.869px 127.869px 127.869px 127.869px 127.869px 127.869px 127.869px 127.869px 127.869px 127.869px 127.869px 127.869px 127.869px 127.869px 127.869px 127.869px 127.869px 127.869px "> crecimiento de las urbes no ha ido</tspan></text><text x="377.06px" y="133.629px" style="font-family:'Avenir-Book';font-size:5.76px;fill:#fff;">ac<tspan x="382.947px 386.423px 391.391px 394.971px 398.021px 401.285px 404.335px 407.915px 411.391px 413.053px 415.89px 419.366px 422.629px 424.291px 427.554px 430.817px 432.479px 436.059px 439.322px 441.836px 444.887px 446.859px 448.832px 452.309px 453.752px 455.195px 458.671px 460.333px 463.913px 466.963px 468.936px 471.986px 473.429px 476.692px 478.135px 481.611px 483.273px 486.853px 490.116px 491.778px " y="133.629px 133.629px 133.629px 133.629px 133.629px 133.629px 133.629px 133.629px 133.629px 133.629px 133.629px 133.629px 133.629px 133.629px 133.629px 133.629px 133.629px 133.629px 133.629px 133.629px 133.629px 133.629px 133.629px 133.629px 133.629px 133.629px 133.629px 133.629px 133.629px 133.629px 133.629px 133.629px 133.629px 133.629px 133.629px 133.629px 133.629px 133.629px 133.629px 133.629px ">ompañado con un desarrollo paralelo de l</tspan>a</text><text x="377.06px" y="139.389px" style="font-family:'Avenir-Book';font-size:5.76px;fill:#fff;">Ig<tspan x="382.221px 383.664px 386.927px 389.442px 390.885px 393.935px 395.597px 399.712px 402.762px 404.735px 408.212px 409.654px 411.097px 413.934px 416.984px 418.646px 421.909px 425.173px 426.834px 430.098px 432.612px 434.585px 437.635px 440.149px 441.811px 445.074px 448.337px 451.601px 454.437px 457.488px 460.002px 461.664px 464.178px 467.654px 470.918px 473.968px 476.482px " y="139.389px 139.389px 139.389px 139.389px 139.389px 139.389px 139.389px 139.389px 139.389px 139.389px 139.389px 139.389px 139.389px 139.389px 139.389px 139.389px 139.389px 139.389px 139.389px 139.389px 139.389px 139.389px 139.389px 139.389px 139.389px 139.389px 139.389px 139.389px 139.389px 139.389px 139.389px 139.389px 139.389px 139.389px 139.389px 139.389px 139.389px ">lesia Católica en estas nuevas zonas.</tspan></text></g><path d="M515.123,232.437c9.938,2.328 19.103,8.777 20.029,19.126c0.765,9.245 -8.812,23.157 -19.791,25.51c1.285,1.191 2.57,2.383 3.929,3.517c0.695,-3.621 1.736,-7.249 2.936,-10.825c1.262,-3.799 -4.112,-4.954 -6.767,-1.733c-3.184,3.898 -5.85,8.006 -7.882,12.322c-0.904,1.849 -0.573,4.227 1.533,4.512c7.369,0.999 14.902,1.607 22.586,1.656c4.983,0.055 7.043,-7.534 2.06,-7.588c-7.064,-0.008 -13.934,-0.519 -20.683,-1.476c0.501,1.541 1.075,3.025 1.533,4.512c1.766,-3.755 3.831,-7.129 6.589,-10.518c-2.246,-0.615 -4.522,-1.119 -6.768,-1.733c-1.274,3.633 -2.2,7.259 -2.938,10.824c-0.507,2.507 1.192,4.077 3.929,3.516c8.4,-1.741 14.138,-6.583 19.41,-13.522c4.714,-6.151 8.26,-12.442 8.489,-19.212c0.377,-14.094 -11.206,-23.484 -24.17,-26.52c-4.613,-0.784 -8.546,6.513 -4.024,7.632" style="fill:#f9ea01;fill-rule:nonzero;"/><rect x="-0.486" y="399.273" width="600.408" height="799.569" style="fill:#fff;"/><g transform="matrix(0.00739348,-0.999973,0.999973,0.00739348,-929.525,414.923)"><text x="-221.903px" y="998.167px" style="font-family:'Balto-Bold';font-size:18px;fill:#1a9ed4;">¿<tspan x="-209.901px -194.825px -180.419px -167.727px -163.232px -148.157px -133.75px -121.059px -106.715px -94.023px -75.184px -60.381px -47.459px " y="998.167px 998.167px 998.167px 998.167px 998.167px 998.167px 998.167px 998.167px 998.167px 998.167px 998.167px 998.167px 998.167px ">QUÉ QUEREMOS?</tspan></text></g><g transform="matrix(0.00739348,-0.999973,0.999973,0.00739348,-1207.04,687.218)"><text x="-223.5px" y="1274.1px" style="font-family:'Balto-Bold';font-size:18px;fill:#1a9ed4;">¿<tspan x="-211.499px -197.155px -182.08px -163.241px -148.165px -143.67px -132.379px -117.304px -112.808px -98.088px -83.348px -69.004px -56.312px -37.473px -22.67px -9.748px " y="1274.1px 1274.1px 1274.1px 1274.1px 1274.1px 1274.1px 1274.1px 1274.1px 1274.1px 1274.1px 1274.1px 1274.1px 1274.1px 1274.1px 1274.1px 1274.1px ">CÓMO LO HAREMOS?</tspan></text></g><g transform="matrix(0.00739348,-0.999973,0.999973,0.00739348,-1401.71,879.494)"><text x="-223.984px" y="1468.3px" style="font-family:'Balto-Bold';font-size:18px;fill:#1a9ed4;">¿<tspan x="-211.146px -197.157px -182.082px -167.738px -163.243px -148.168px -133.761px -121.258px " y="1468.3px 1468.3px 1468.3px 1468.3px 1468.3px 1468.3px 1468.3px 1468.3px ">POR QUÉ?</tspan></text></g><path d="M274.798,659.166c-0.258,10.943 -0.13,21.83 0.254,32.773c0.128,3.964 6.673,5.918 8.983,2.122c3.209,-5.248 6.482,-10.942 12.321,-14.292c-1.925,-2.178 -3.914,-4.411 -5.838,-6.588c-3.081,2.679 -5.84,5.582 -8.407,8.653c-1.22,1.451 -2.31,2.959 -3.401,4.466c-0.706,1.005 -1.797,3.573 -2.76,3.964c0.835,-0.167 1.605,-0.391 2.439,-0.558c-0.898,0 -3.337,-2.122 -4.042,-2.625c-1.54,-1.005 -3.016,-2.065 -4.492,-3.127c-2.951,-2.177 -5.774,-4.522 -8.469,-6.979c-4.299,-3.908 -11.101,2.009 -6.802,5.918c3.529,3.182 7.186,6.141 11.164,8.934c3.465,2.401 8.405,6.867 13.282,6.197c4.877,-0.669 6.545,-5.526 8.855,-8.708c2.696,-3.685 5.84,-7.035 9.433,-10.161c3.722,-3.294 -1.154,-9.268 -5.838,-6.588c-7.315,4.243 -11.743,10.662 -15.722,17.306c3.016,0.726 5.967,1.396 8.983,2.122c-0.448,-10.942 -0.512,-21.83 -0.254,-32.772c0.064,-5.416 -9.561,-5.417 -9.689,-0.057" style="fill:#f9ea01;fill-rule:nonzero;"/><path d="M279.915,899.207c-0.257,10.943 -0.129,21.83 0.255,32.773c0.127,3.964 6.672,5.919 8.983,2.123c3.208,-5.249 6.481,-10.943 12.321,-14.292c-1.925,-2.178 -3.914,-4.411 -5.839,-6.589c-3.08,2.68 -5.84,5.583 -8.406,8.653c-1.22,1.452 -2.311,2.959 -3.402,4.466c-0.706,1.005 -1.797,3.573 -2.759,3.964c0.834,-0.167 1.604,-0.391 2.439,-0.558c-0.899,0 -3.337,-2.121 -4.042,-2.624c-1.541,-1.005 -3.017,-2.066 -4.492,-3.127c-2.951,-2.177 -5.774,-4.523 -8.469,-6.979c-4.299,-3.909 -11.101,2.008 -6.802,5.917c3.528,3.183 7.186,6.142 11.163,8.934c3.465,2.401 8.406,6.867 13.283,6.198c4.876,-0.669 6.545,-5.527 8.855,-8.709c2.695,-3.685 5.84,-7.034 9.433,-10.161c3.722,-3.293 -1.154,-9.268 -5.838,-6.588c-7.316,4.243 -11.744,10.663 -15.722,17.306c3.015,0.726 5.967,1.397 8.983,2.123c-0.449,-10.943 -0.512,-21.83 -0.255,-32.773c0.065,-5.416 -9.56,-5.417 -9.689,-0.057" style="fill:#f9ea01;fill-rule:nonzero;"/><g transform="matrix(1,0,0,1,-24.3123,515.664)"><text x="122.644px" y="469.632px" style="font-family:'Avenir-Book';font-size:24px;fill:#404040;">Para <tspan x="186.913px 194.449px 207.793px " y="469.632px 469.632px 469.632px ">res</tspan>ponder <tspan x="313.846px " y="469.632px ">a</tspan>l <tspan x="349.675px " y="469.632px ">l</tspan>lamado <tspan x="453.063px " y="469.632px ">d</tspan>el <tspan x="504.444px " y="469.632px ">P</tspan>apa</text><text x="122.644px" y="499.632px" style="font-family:'Avenir-Book';font-size:24px;fill:#404040;">Francisco, <tspan x="245.962px " y="499.632px ">q</tspan>uien <tspan x="322.601px " y="499.632px ">i</tspan>mpulsa <tspan x="421.439px 433.895px 450.078px " y="499.632px 499.632px 499.632px ">a t</tspan>odos <tspan x="527.58px " y="499.632px ">l</tspan>os</text><text x="122.644px" y="529.632px" style="font-family:'Avenir-Book';font-size:24px;fill:#404040;">católicos <tspan x="245.866px 258.322px 287.777px " y="529.632px 529.632px 529.632px ">a s</tspan>alir <tspan x="359.399px 371.855px 401.31px " y="529.632px 529.632px 529.632px ">a l</tspan>as <tspan x="459.204px " y="529.632px ">p</tspan>eriferias</text><text x="122.644px" y="559.632px" style="font-family:'Avenir-Book';font-size:24px;fill:#404040;">&quot;territoriales&quot; <tspan x="289.663px 301.231px 322.617px " y="559.632px 559.632px 559.632px ">y &quot;</tspan>existenciales&quot;, <tspan x="510.252px " y="559.632px ">p</tspan>ara</text><text x="122.644px" y="589.632px" style="font-family:'Avenir-Book';font-size:24px;fill:#404040;">llevar el <tspan x="211.769px " y="589.632px ">g</tspan>ozo del <tspan x="312.054px " y="589.632px ">E</tspan>vangelio, cumpliendo</text><text x="122.644px" y="619.632px" style="font-family:'Avenir-Book';font-size:24px;fill:#404040;">así nuestr<tspan x="223.516px 237.748px 244.42px 251.956px 266.188px " y="619.632px 619.632px 619.632px 619.632px 619.632px ">o rol</tspan> misioner<tspan x="369.268px 383.5px " y="619.632px 619.632px ">o.</tspan></text></g><g transform="matrix(1,0,0,1,-22.4929,266.945)"><text x="122.644px" y="469.632px" style="font-family:'Avenir-Book';font-size:24px;fill:#404040;">Mediante <tspan x="233.348px " y="469.632px ">l</tspan>a <tspan x="260.028px " y="469.632px ">c</tspan>onstrucción <tspan x="403.612px " y="469.632px ">d</tspan>e <tspan x="440.084px " y="469.632px ">c</tspan>apillas <tspan x="527.197px " y="469.632px ">e</tspan>n</text><text x="122.644px" y="499.632px" style="font-family:'Avenir-Book';font-size:24px;fill:#404040;">la <tspan x="154.161px " y="499.632px ">p</tspan>eriferia <tspan x="255.831px " y="499.632px ">d</tspan>e <tspan x="297.14px " y="499.632px ">d</tspan>istintas <tspan x="398.81px " y="499.632px ">c</tspan>iudades <tspan x="508.135px 520.591px 533.893px " y="499.632px 499.632px 499.632px ">a l</tspan>o</text><text x="122.644px" y="529.632px" style="font-family:'Avenir-Book';font-size:24px;fill:#404040;">lar<tspan x="148.396px 163.06px 177.292px 183.37px " y="529.632px 529.632px 529.632px 529.632px ">go d</tspan>e <tspan x="217.457px " y="529.632px ">C</tspan>hile, <tspan x="285.312px " y="529.632px ">p</tspan>rivilegiando <tspan x="431.334px " y="529.632px ">l</tspan>ugar<tspan x="485.094px 498.438px 508.662px 514.741px " y="529.632px 529.632px 529.632px 529.632px ">es c</tspan>on</text><text x="122.644px" y="559.632px" style="font-family:'Avenir-Book';font-size:24px;fill:#404040;">alta <tspan x="167.149px " y="559.632px ">v</tspan>ulnerabilidad <tspan x="324.527px 336.095px 341.96px " y="559.632px 559.632px 559.632px ">y q</tspan>ue <tspan x="389.178px " y="559.632px ">n</tspan>o <tspan x="422.619px " y="559.632px ">c</tspan>uenten <tspan x="514.741px " y="559.632px ">c</tspan>on</text><text x="122.644px" y="589.632px" style="font-family:'Avenir-Book';font-size:24px;fill:#404040;">acceso <tspan x="208.817px 221.273px 234.054px " y="589.632px 589.632px 589.632px ">a u</tspan>na <tspan x="285.979px " y="589.632px ">c</tspan>apilla <tspan x="367.184px 381.416px 394.197px 406.653px 419.434px " y="589.632px 589.632px 589.632px 589.632px 589.632px ">o a u</tspan>n <tspan x="458.904px " y="589.632px ">l</tspan>ugar <tspan x="525.877px " y="589.632px ">d</tspan>e</text><text x="122.644px" y="619.632px" style="font-family:'Avenir-Book';font-size:24px;fill:#404040;">culto.</text></g><g transform="matrix(1,0,0,1,-18.5139,5.7407)"><text x="122.644px" y="469.632px" style="font-family:'Avenir-Book';font-size:24px;fill:#404040;">Que <tspan x="195.27px " y="469.632px ">l</tspan>a <tspan x="239.408px " y="469.632px ">c</tspan>omunidad <tspan x="385.81px " y="469.632px ">v</tspan>isitada <tspan x="492.588px 504.156px 530.078px " y="469.632px 469.632px 469.632px ">y l</tspan>os</text><text x="122.644px" y="493.632px" style="font-family:'Avenir-Book';font-size:24px;fill:#404040;">voluntarios <tspan x="271.767px " y="493.632px ">p</tspan>uedan <tspan x="385.851px " y="493.632px ">c</tspan>ompartir <tspan x="521.15px " y="493.632px ">u</tspan>na</text><text x="122.644px" y="517.632px" style="font-family:'Avenir-Book';font-size:24px;fill:#404040;">experiencia <tspan x="254.881px 262.417px 275.761px " y="517.632px 517.632px 517.632px ">rea</tspan>l <tspan x="303.094px " y="517.632px ">d</tspan>e <tspan x="340.22px " y="517.632px ">e</tspan>ncuentr<tspan x="434.012px 448.244px 457.361px " y="517.632px 517.632px 517.632px ">o c</tspan>on <tspan x="505.622px " y="517.632px ">D</tspan>ios.</text><text x="122.644px" y="541.632px" style="font-family:'Avenir-Book';font-size:24px;fill:#404040;">Para <tspan x="193.165px " y="541.632px ">e</tspan>sto, <tspan x="269.469px " y="541.632px ">l</tspan>os <tspan x="323.55px " y="541.632px ">v</tspan>oluntarios <tspan x="464.27px " y="541.632px ">b</tspan>uscarán</text><text x="122.644px" y="565.632px" style="font-family:'Avenir-Book';font-size:24px;fill:#404040;">involucrar <tspan x="235.236px 247.692px 256.317px " y="565.632px 565.632px 565.632px ">a l</tspan>as <tspan x="293.381px " y="565.632px ">f</tspan>amilias <tspan x="381.973px " y="565.632px ">d</tspan>e <tspan x="418.606px " y="565.632px ">l</tspan>a <tspan x="445.446px " y="565.632px ">z</tspan>ona <tspan x="504.326px " y="565.632px ">t</tspan>anto</text><text x="122.644px" y="589.632px" style="font-family:'Avenir-Book';font-size:24px;fill:#404040;">en <tspan x="157.305px " y="589.632px ">l</tspan>a <tspan x="183.494px " y="589.632px ">c</tspan>onstrucción <tspan x="326.587px " y="589.632px ">d</tspan>e <tspan x="362.568px " y="589.632px ">l</tspan>a <tspan x="388.757px " y="589.632px ">c</tspan>apilla <tspan x="465.154px " y="589.632px ">c</tspan>omo <tspan x="533.606px " y="589.632px ">e</tspan>n</text><text x="122.644px" y="613.632px" style="font-family:'Avenir-Book';font-size:24px;fill:#404040;">las <tspan x="164.293px " y="613.632px ">a</tspan>ctividades <tspan x="297.933px 305.469px 318.813px 330.381px 337.917px 351.261px " y="613.632px 613.632px 613.632px 613.632px 613.632px 613.632px ">recrea</tspan>tivas <tspan x="424.902px 436.47px 449.678px " y="613.632px 613.632px 613.632px ">y f</tspan>or<tspan x="479.414px 499.862px " y="613.632px 613.632px ">ma</tspan>tivas</text><text x="122.644px" y="637.632px" style="font-family:'Avenir-Book';font-size:24px;fill:#404040;">r<tspan x="130.18px 143.524px " y="637.632px 637.632px ">ea</tspan>lizadas.</text></g></svg>