<?xml version="1.0" standalone="no"?><!DOCTYPE svg PUBLIC "-//W3C//DTD SVG 1.1//EN" "http://www.w3.org/Graphics/SVG/1.1/DTD/svg11.dtd"><svg width="100%" height="100%" viewBox="0 0 1281 501" version="1.1" xmlns="http://www.w3.org/2000/svg" xmlns:xlink="http://www.w3.org/1999/xlink" xml:space="preserve" style="fill-rule:evenodd;clip-rule:evenodd;stroke-linejoin:round;stroke-miterlimit:1.41421;"><g id="Capa 1"><g><clipPath id="_clip1"><rect x="0" y="0" width="1280.87" height="500.441"/></clipPath><g clip-path="url(#_clip1)"><g><g opacity="0.800003"><rect x="0" y="-0.45" width="1280.87" height="500.441" style="fill:#209ed9;fill-rule:nonzero;"/></g></g><path d="M872.584,152.581c11.508,-6.905 27.018,-10.407 39.627,-4.303c11.208,5.504 18.513,22.916 11.408,33.823c2.501,-0.3 5.003,-0.6 7.505,-1.001c-3.503,-3.002 -6.705,-6.304 -9.707,-9.706c-3.202,-3.603 -9.306,0.2 -8.005,4.603c1.601,5.304 3.902,10.307 7.005,14.91c1.3,2.001 4.302,3.302 6.504,1.701c7.705,-5.604 15.11,-11.608 22.015,-18.112c4.503,-4.203 -2.302,-11.008 -6.805,-6.805c-6.304,6.004 -13.008,11.508 -20.113,16.612c2.201,0.6 4.403,1.1 6.504,1.701c-2.702,-4.003 -4.703,-8.006 -6.104,-12.609c-2.702,1.501 -5.304,3.102 -8.005,4.603c3.002,3.503 6.304,6.705 9.706,9.707c2.402,2.101 5.704,1.701 7.505,-1.001c5.504,-8.305 5.104,-16.411 1.902,-25.517c-2.802,-8.106 -6.805,-15.311 -14.31,-20.014c-15.711,-9.706 -36.725,-6.104 -51.735,2.902c-5.004,3.403 -0.201,11.608 5.103,8.506" style="fill:#fbe900;fill-rule:nonzero;"/><path d="M472.321,438.499c-1.801,0 -2.001,0.1 -3.402,0.4c-0.701,0.3 -1.401,0.701 -1.802,1.001c0.101,0.901 1.902,1.001 2.402,1.101c3.302,0.6 7.705,-0.401 7.805,-1.201c-1.3,-1.401 -3.302,-1.301 -5.003,-1.301" style="fill:#fff;fill-rule:nonzero;"/><path d="M472.021,366.85c-0.1,0 -2.302,0.6 -2.302,0.6c0.901,0.201 2.102,0.1 2.502,0.1c0.2,0 0.1,-0.1 0,-0.4c0.1,-0.3 -0.1,-0.3 -0.2,-0.3" style="fill:#fff;fill-rule:nonzero;"/><path d="M90.261,444.103c-0.2,-0.2 -1.801,-1.001 -2.101,-1.001c-0.1,0 -0.301,0.2 -0.501,0.301c-1.101,1 -1.801,1 -1.701,-0.201c0.801,-1.1 -0.3,-0.9 -1.301,-0.9c-2.401,-0.1 -4.903,0.6 -6.604,1.401c-0.301,0.1 -0.401,0.2 -0.401,0.3c0,0 0.1,0.1 0.301,0.2c1.601,1.001 4.303,1.801 6.804,1.801c3.703,0 5.404,-1.1 5.604,-1.401c0.2,-0.3 0.2,-0.3 -0.1,-0.5" style="fill:#fff;fill-rule:nonzero;"/><path d="M76.552,375.956c0.5,0 1.301,-0.1 1.601,-0.1c0.5,-0.1 0.5,-0.1 0.2,-0.5c-2.201,-3.002 -2.902,-3.703 -3.302,-2.902c-0.1,0.1 -0.2,0.4 -0.2,0.7c0,0.4 0.2,2.001 0.4,2.602c0.1,0.2 0.1,0.2 1.301,0.2" style="fill:#fff;fill-rule:nonzero;"/><path d="M83.457,386.463c-0.1,0 -2.902,0.801 -2.902,0.801c1.101,0.3 2.702,0.1 3.302,0.1c0.3,0 0.1,-0.1 0,-0.601c-0.1,-0.3 -0.3,-0.3 -0.4,-0.3" style="fill:#fff;fill-rule:nonzero;"/><path d="M884.902,443.002c-0.2,-0.2 -1.601,-0.901 -1.901,-0.901c-0.1,0 -0.301,0.201 -0.501,0.301c-1,0.9 -1.601,0.9 -1.501,-0.201c0.701,-1 -0.3,-0.8 -1.201,-0.9c-2.201,0 -4.503,0.6 -6.004,1.301c-0.3,0.1 -0.4,0.2 -0.4,0.3c0,0 0.1,0.1 0.3,0.2c1.501,0.901 4.003,1.701 6.205,1.601c3.402,0 5.003,-1.001 5.203,-1.301c0.1,-0.2 0.1,-0.2 -0.2,-0.4" style="fill:#fff;fill-rule:nonzero;"/><path d="M472.321,391.867c-1.801,0 -2.001,0.1 -3.402,0.4c-0.701,0.3 -1.401,0.701 -1.802,1.001c0.101,0.901 1.902,1.001 2.402,1.101c3.302,0.6 7.705,-0.401 7.805,-1.201c-1.3,-1.401 -3.302,-1.301 -5.003,-1.301" style="fill:#fff;fill-rule:nonzero;"/><path d="M472.321,415.083c-1.801,0 -2.001,0.1 -3.402,0.4c-0.701,0.3 -1.401,0.701 -1.802,1.001c0.101,0.901 1.902,1.001 2.402,1.101c3.302,0.6 7.705,-0.401 7.805,-1.201c-1.3,-1.401 -3.302,-1.301 -5.003,-1.301" style="fill:#fff;fill-rule:nonzero;"/><path d="M466.718,358.544c0.4,0 1.001,-0.1 1.301,-0.1c0.4,-0.1 0.4,-0.1 0.2,-0.4c-1.701,-2.402 -2.302,-2.902 -2.602,-2.302c-0.1,0.1 -0.2,0.3 -0.2,0.5c0,0.301 0.2,1.602 0.3,2.002c0,0.3 0.1,0.3 1.001,0.3" style="fill:#fff;fill-rule:nonzero;"/><path d="M469.52,326.022c3.302,0.6 7.705,-0.4 7.805,-1.201c-1.301,-1.401 -3.302,-1.301 -5.003,-1.301c-1.801,0 -2.001,0.1 -3.402,0.401c-0.701,0.3 -1.401,0.7 -1.802,1c0.1,0.801 1.802,1.001 2.402,1.101" style="fill:#fff;fill-rule:nonzero;"/><path d="M875.596,332.126c3.903,0.701 9.106,-0.5 9.206,-1.501c-1.501,-1.701 -3.802,-1.501 -5.904,-1.501c-2.101,0 -2.301,0.1 -4.003,0.5c-0.8,0.3 -1.601,0.901 -2.101,1.201c0.1,1.001 2.202,1.201 2.802,1.301" style="fill:#fff;fill-rule:nonzero;"/><path d="M882.401,400.873c-1.801,-0.801 -3.502,-0.5 -4.203,-0.1c-0.8,0.5 -1.201,0.8 -2.101,1.801c-0.701,0.901 -0.701,1.101 -0.501,1.001c0.601,0 5.804,-0.501 6.805,-0.601c0.6,-0.1 1.401,-0.2 1.601,-0.2c0.6,0 0.6,0 -0.1,-0.7c-0.3,-0.501 -0.8,-0.901 -1.501,-1.201" style="fill:#fff;fill-rule:nonzero;"/><path d="M878.698,357.744c-0.1,0 -2.702,0.7 -2.702,0.7c1.101,0.201 2.402,0.101 3.002,0.101c0.3,0 0.1,-0.101 0,-0.501c-0.1,-0.3 -0.2,-0.3 -0.3,-0.3" style="fill:#fff;fill-rule:nonzero;"/><path d="M80.155,334.228c4.203,0.801 9.907,-0.5 10.007,-1.601c-1.701,-1.801 -4.203,-1.701 -6.405,-1.701c-2.201,0 -2.501,0.1 -4.302,0.5c-0.901,0.3 -1.702,0.901 -2.302,1.301c0.1,1.201 2.302,1.401 3.002,1.501" style="fill:#fff;fill-rule:nonzero;"/><path d="M887.104,363.348c-1.401,0.1 -10.107,-0.801 -13.109,-1.501c-0.8,-0.2 -3.602,-0.901 -3.702,-1.001c-0.1,0 -0.301,-0.2 -0.401,-0.4c-0.2,-0.5 -0.1,-1.901 0.1,-2.402c0.1,-0.3 0.201,-0.4 0.801,-0.4c0.3,-0.1 0.7,-0.2 0.8,-0.2c0.301,-0.3 1.201,-0.5 4.403,-1.201c1.101,-0.3 2.002,-0.6 2.002,-0.6c0.1,0 0.2,-0.2 0.2,-0.401c-0.2,-0.8 0.5,-1.2 0.8,-0.5c0.201,0.3 0.401,0.5 0.501,0.5c0.2,0.101 0.7,-0.1 4.403,-1.3c0.7,-0.201 1.401,-0.501 1.501,-0.501c0.2,0 0.3,0.601 0.3,1.301c0,1.001 -0.1,1.201 -2.001,1.801c-3.803,1.101 -3.503,1.201 -3.503,1.201c0,0 0,0.2 0.1,0.601c0.201,0.6 0.201,0.6 1.001,0.7c0.6,0.1 1.901,0.2 3.002,0.3c3.302,0.3 3.803,0.601 3.903,1.902c0.3,1.401 0,2.001 -1.101,2.101M873.094,369.652c2.202,0.601 4.504,0.601 7.406,0.1c2.201,-0.2 3.902,-0.9 4.603,-1.501c0.5,-0.8 0,-1.501 -0.401,-1.801c-0.5,-0.6 -0.6,-0.8 -0.8,-1.401c-0.1,-0.6 -0.1,-0.8 0.5,-0.9c0.601,0 2.102,1.701 2.602,4.002c0.3,1.701 0,3.503 -1.401,4.403c-1.001,0.701 -3.502,1.301 -6.104,1.501c-2.002,0.1 -3.302,0 -4.803,-0.3c-2.402,-0.6 -3.503,-1.401 -4.403,-2.802c0,-0.1 -0.201,-0.7 -0.201,-1.301c-0.1,-2.501 1.401,-3.502 2.102,-3.602c1,-0.1 1.301,-0.1 1.401,0.5c0.1,0.4 -0.3,0.801 -1.201,1.401c-0.4,0.3 -0.5,0.4 -0.6,0.601c-0.201,0.5 0,0.8 1.3,1.1M886.203,382.861c-1,1.101 -2.301,1.501 -2.802,1.501c-0.5,0 -0.6,-0.1 -0.8,-0.3c-0.3,-0.3 -0.4,-1.301 -0.1,-1.701c0.2,-0.4 1.001,-1.101 1.501,-1.401c0.7,-0.5 1.101,-0.901 1.101,-1.001c0,-0.1 -0.601,-0.3 -1.301,-0.2c-0.501,0 -1.801,0.601 -2.502,1.101c-0.2,0.1 -2.702,1.501 -3.602,1.901c-4.103,1.701 -5.804,0.801 -6.505,0.1c-0.5,-0.4 -1.1,-1.301 -1.301,-2.101c-0.1,-0.3 -0.1,-0.801 -0.1,-1.601c-0.1,-2.402 1.201,-3.102 1.802,-3.302c0.4,-0.201 1.2,-0.201 1.601,0c1.401,1.4 0.3,2.201 -0.301,2.301c-0.8,0.1 -1.401,0.3 -1.601,0.5c-0.1,0.1 -0.1,0.201 0.1,0.401c1.802,1.501 3.403,0.9 3.603,0.8c0.8,-0.2 4.403,-2.101 5.404,-2.802c2.701,-1.701 4.002,-1.901 4.903,-0.9c0.7,0.8 1.001,1.1 1.201,1.801c1,2.001 0.2,4.103 -0.301,4.903M879.799,388.265c-2.902,-0.3 -3.202,-0.3 -6.304,-0.3c-2.902,-0.1 -3.302,-0.1 -3.603,-0.501c-0.1,-0.3 0,-1.3 0.1,-1.501c0.301,-0.3 1.001,-0.4 5.904,-0.4c6.405,-0.1 6.805,-0.1 8.506,0.701c3.002,1.3 2.402,5.403 2.202,6.504c-0.3,1.301 -0.901,1.801 -2.402,2.302c-1.401,0.4 -12.408,0.4 -13.209,0c-0.4,-0.201 -0.7,-0.901 -0.6,-1.702c0,-0.9 0.1,-1.401 0.6,-1.601c0.4,-0.2 2.402,-0.3 6.404,-0.4c3.303,-0.1 5.604,-0.2 6.405,-0.4c0.7,-0.1 1.201,-0.3 1.101,-0.4c-1.001,-2.302 -2.902,-2.002 -5.104,-2.302M886.704,406.177c-0.2,0.5 -0.701,0.601 -2.602,0.701c-0.801,0.1 -7.305,0.7 -10.907,0.8c-1.702,0.1 -2.402,0 -2.602,0l-0.4,-0.2c0,0 -0.601,-1.001 -0.101,-2.302c0,-0.2 0.101,-1.1 0.101,-1.901c0,-1.601 0.1,-2.001 0.7,-2.502c1.801,-1.601 2.902,0.201 3.402,0.801c0.301,0.5 0.401,0.6 0.401,0.2c0,-0.2 1.2,-2.301 1.501,-2.802c2.001,-3.002 5.303,-2.401 6.004,-2.201c1.501,0.6 2.802,1.701 3.602,3.102c0.3,0.6 0.3,0.8 0.3,1.801c0.1,1.001 0.1,1.101 0.301,1.201c0.3,0.1 0.6,0.6 0.6,1.801c-0.1,0.801 -0.1,1.101 -0.3,1.501M879.799,429.593c-2.902,-0.3 -3.202,-0.3 -6.304,-0.3c-2.902,-0.1 -3.302,-0.1 -3.603,-0.5c-0.1,-0.301 0,-1.301 0.1,-1.501c0.301,-0.301 1.001,-0.401 5.904,-0.401c6.405,-0.1 6.805,-0.1 8.506,0.701c3.002,1.301 2.402,5.403 2.202,6.504c-0.3,1.301 -0.901,1.801 -2.402,2.302c-1.401,0.4 -12.408,0.4 -13.209,0c-0.4,-0.2 -0.7,-0.901 -0.6,-1.701c0,-0.901 0.1,-1.401 0.6,-1.602c0.4,-0.2 2.402,-0.3 6.404,-0.4c3.303,-0.1 5.604,-0.2 6.405,-0.4c0.7,-0.1 1.201,-0.3 1.101,-0.4c-1.001,-2.402 -2.902,-2.002 -5.104,-2.302M869.992,417.585c0.1,-1.401 0.301,-1.601 0.601,-1.601c0.5,0 0.6,0.5 0.5,2.501c-0.1,1.101 -0.1,2.002 -0.1,2.202c0.1,0 1.201,0.1 2.502,0c0.4,-0.1 0.4,-0.1 0.5,-1.201c0,-1.201 0.1,-1.801 0.5,-1.901c0.101,-0.1 0.201,0 0.401,0c0.2,0.1 0.7,1.701 0.9,2.402c0,0.7 0,0.7 1.501,0.7c2.902,0.1 5.704,-0.3 6.305,-0.4c0.9,-0.2 1,0 1,-0.401c0,-0.4 0.1,-2.401 0.201,-2.701c0.4,-0.601 0.8,-0.701 1.2,0c0.701,1 0.801,2.201 0.801,4.002c0,2.402 -1.501,3.203 -1.801,3.303c-0.601,0.3 -2.102,0.5 -3.203,0.7c-0.6,0.1 -4.503,0.3 -7.104,0c-3.503,-0.3 -4.203,-0.5 -4.403,-0.901c-0.2,-0.5 -0.501,-2.801 -0.301,-4.102c-0.1,-0.701 0,-1.902 0,-2.602M886.504,445.604c-1.201,2.402 -3.803,2.602 -5.404,2.602c-7.005,-0.1 -8.806,-2.402 -8.806,-2.402c0,0 -0.4,-0.2 -0.901,-0.5c-0.8,-0.601 -1.301,-1.201 -1.501,-1.801c-0.1,-1.101 0,-1.802 0.2,-2.002c0.201,-0.2 0.301,-0.2 0.501,-0.1c0.1,0.1 0.2,0.1 0.2,0.1c0,0 0.1,-0.2 0.3,-0.4c0.701,-1.301 1.701,-2.402 3.402,-2.902c5.304,-1.501 7.305,0 8.706,0.3c0.801,0.3 0.901,0.3 1.401,-0.2c0.601,-0.6 1.601,-1.201 1.802,-1.101c0.5,0 0.4,1.101 -0.1,1.601c-0.101,0.1 -0.401,0.301 -0.501,0.501c-0.2,0.3 -0.2,0.3 0.2,0.8c0.2,0.3 0.501,0.801 0.601,1.201c0.6,1.501 0.2,3.803 -0.1,4.303M886.704,454.61c-0.1,4.503 -4.103,4.103 -4.704,3.703c-1.1,-0.501 -1.701,-1.101 -2.701,-2.102c-0.901,-1.201 -1.601,-1.601 -2.602,-1.801c-0.901,-0.1 -1.101,0 -0.901,0.5c0,0.601 -0.2,1.001 -0.6,1.201c-0.801,0.3 -1.301,-0.1 -1.201,-1.101c-0.3,-2.601 1.801,-3.102 2.402,-3.002c1.301,-0.1 3.302,0.501 4.903,1.301c2.001,1.801 3.603,0.2 3.803,0c0.8,-1.801 -1.001,-2.001 -1.301,-2.001c-0.601,0 -1.101,-1.301 -0.401,-1.701c1.301,-0.601 2.102,0.2 2.402,0.7c1.101,1.701 1.001,3.503 0.901,4.303M872.594,455.411c-0.6,0.8 -1.901,0.4 -2.201,0.3c-0.701,-0.5 -0.601,-2.102 0,-2.902c0.1,-0.1 0.3,-0.1 0.8,-0.1c0.801,0 1.201,0.2 1.501,0.7c0.2,0.601 0.2,1.501 -0.1,2.002M869.892,309.011c0.401,-4.503 4.303,-3.803 4.904,-3.502c1.1,0.6 1.601,1.2 2.601,2.301c0.901,1.201 1.501,1.801 2.502,2.002c0.901,0.1 1.101,0.1 1.001,-0.501c0,-0.6 0.2,-1 0.7,-1.201c0.901,-0.2 1.301,0.201 1.201,1.201c0.1,2.602 -2.001,3.002 -2.602,2.802c-1.301,0 -3.302,-0.6 -4.803,-1.601c-1.901,-1.901 -3.602,-0.4 -3.802,-0.2c-0.901,1.801 0.9,2.101 1.2,2.101c0.601,0 1.101,1.401 0.301,1.701c-1.301,0.601 -2.102,-0.3 -2.402,-0.9c-1.101,-1.701 -0.901,-3.503 -0.801,-4.203M868.591,423.989c-0.5,1.201 -1.1,1.101 -1.501,-0.8c-0.3,-0.501 -0.7,-1.501 -1.1,-2.102c-0.601,-1.201 -0.801,-1.801 -0.801,-2.902c0,-2.101 0.701,-2.101 1.801,-0.1c1.101,2.202 1.902,4.804 1.601,5.904M479.226,371.554c-1.2,0.1 -8.605,-0.701 -11.107,-1.301c-0.701,-0.2 -3.102,-0.801 -3.202,-0.901c-0.1,0 -0.201,-0.2 -0.301,-0.4c-0.2,-0.4 -0.1,-1.601 0.101,-2.002c0.1,-0.3 0.2,-0.3 0.7,-0.3c0.3,-0.1 0.6,-0.2 0.701,-0.2c0.3,-0.3 1.1,-0.4 3.702,-1.001c1.001,-0.3 1.701,-0.5 1.701,-0.5c0.1,0 0.2,-0.2 0.2,-0.4c-0.2,-0.701 0.401,-1.001 0.701,-0.4c0.2,0.3 0.3,0.4 0.4,0.4c0.2,0.1 0.601,-0.1 3.803,-1.101c0.6,-0.2 1.201,-0.4 1.201,-0.4c0.2,0 0.3,0.5 0.3,1.101c0,0.9 -0.1,1 -1.701,1.501c-3.203,0.9 -3.002,1 -3.002,1c0,0 0,0.2 0.1,0.501c0.2,0.5 0.2,0.5 0.9,0.6c0.501,0.1 1.601,0.2 2.602,0.3c2.802,0.3 3.202,0.501 3.302,1.601c0.1,1.301 -0.2,1.802 -1.101,1.902M479.326,380.56c-0.4,0.5 -2.401,0.5 -3.102,0.5c-1.801,0.3 -4.403,0.3 -8.205,0.1c-1.301,0 -1.301,0 -1.601,-0.3c-0.501,-0.5 -0.701,-1.601 -0.301,-2.502c0.301,-0.8 0.301,-0.8 2.402,-0.7c0.801,0 1.401,-0.1 1.401,-0.1c0.1,0 -0.1,-1.902 -0.1,-2.202c0,-0.5 0.2,-0.5 -2.101,-0.7c-2.202,-0.201 -2.202,-0.201 -2.402,-0.401c-0.1,-0.2 -0.3,-0.4 -0.3,-0.5c0,-1.001 0.2,-1.801 0.6,-2.001c0.2,-0.1 2.202,0.1 6.505,0.4c5.603,0.5 6.104,0.5 6.504,0.7c1.001,0.301 0.4,1.201 0.3,1.401c-0.2,0.201 -1.501,0.601 -2.201,0.701c-0.501,0.1 -3.403,0.1 -4.904,0.1c-1,0 -1,0 -0.9,0.3c0.1,0.5 0.1,2.102 0,2.202c-0.1,0.2 0.1,0.2 2.702,0.2c2.701,0 4.603,-0.1 5.103,-0.2c0.3,0 0.5,0 0.701,0.2c0.6,0.3 0.6,2.001 -0.101,2.802M477.825,452.409c-0.9,0.6 -3.002,1.1 -5.203,1.3c-1.701,0.101 -2.802,0 -4.103,-0.3c-2.001,-0.5 -3.002,-1.201 -3.702,-2.401c0,-0.1 -0.101,-0.601 -0.201,-1.101c-0.1,-2.202 1.201,-3.002 1.802,-3.102c0.8,-0.1 1.1,-0.1 1.2,0.4c0.101,0.4 -0.3,0.701 -1.1,1.201c-0.3,0.2 -0.401,0.3 -0.501,0.5c-0.1,0.501 0.1,0.801 1.201,1.001c1.902,0.5 3.803,0.5 6.204,0.1c1.902,-0.2 3.303,-0.701 3.903,-1.301c0.4,-0.7 0,-1.201 -0.3,-1.601c-0.4,-0.5 -0.5,-0.7 -0.701,-1.201c-0.1,-0.5 -0.1,-0.7 0.401,-0.8c0.5,0 1.801,1.401 2.201,3.402c0.3,1.601 0.1,3.102 -1.101,3.903M478.926,459.313c-0.1,3.803 -3.502,3.403 -3.902,3.202c-0.901,-0.4 -1.401,-0.9 -2.302,-1.801c-0.801,-1 -1.401,-1.401 -2.201,-1.501c-0.701,-0.1 -0.901,0 -0.801,0.401c0,0.5 -0.2,0.8 -0.5,1c-0.701,0.2 -1.101,-0.1 -1.001,-0.9c-0.2,-2.202 1.601,-2.602 2.001,-2.502c1.101,-0.1 2.802,0.4 4.103,1.101c1.701,1.501 3.102,0.2 3.202,0c0.701,-1.501 -0.8,-1.702 -1.1,-1.702c-0.501,0 -1.001,-1.1 -0.401,-1.4c1.101,-0.501 1.801,0.2 2.102,0.6c0.9,1.301 0.8,2.802 0.8,3.502M475.324,443.803c-1.902,0.5 -4.103,0.6 -6.705,-0.1c-1.401,-0.301 -1.701,-0.601 -2.502,-1.201c-0.4,-0.3 -1,-1.201 -1.1,-1.501c0,-0.2 -0.1,-0.4 -0.1,-0.4c-0.301,-2.202 1,-3.803 4.503,-4.704c2.601,-0.8 5.103,-0.4 6.304,0.1c2.202,0.701 2.802,1.702 3.102,3.103c0.801,3.802 -2.301,4.403 -3.502,4.703M465.217,431.594c0.2,-0.1 0.3,-0.1 0.2,-0.2c-0.7,-1.401 0.3,-1.601 0.4,-1.901c0.2,-0.2 1.701,-0.5 2.002,-1.001c0.1,-0.3 0,-0.3 -0.301,-0.5c-0.3,-0.2 -1.901,-0.801 -2.101,-1.301c-0.6,-0.901 -0.2,-1.901 0.1,-2.301c0.3,-0.501 1.101,-0.801 2.302,-1.101c1.901,-0.2 6.704,-1.101 7.305,-1.201c1.801,-0.3 2.101,-0.2 2.301,0.3c0.3,0.801 0.1,2.202 -0.2,2.502c-0.5,0.2 -1.601,0.2 -2.101,0.3c-0.401,0.1 -7.405,0.801 -7.606,0.901c-0.2,0.1 -0.1,0.1 0.1,0.3c1.802,0.3 2.302,1.101 2.302,1.201c0.2,0.2 0.4,1.201 0,1.801c-0.4,0.6 -1.701,0.7 -2.602,1.001c-0.8,0.2 -0.7,0.2 -0.4,0.4c0.3,0.2 0.4,0.2 1.501,0.1c1.601,-0.1 9.807,-0.2 10.007,-0.2c0.8,0.6 0.6,2.201 0.3,2.702c-0.2,0.6 -0.6,0.7 -3.102,0.8l-5.304,0c-3.802,-0.1 -3.402,-0.1 -4.503,0c-0.8,0 -0.9,0 -1.101,-0.2c-0.3,-0.5 -0.2,-0.901 -0.2,-1.201c0.1,-0.6 0.401,-1.101 0.701,-1.201M465.917,401.774c0.601,-0.2 1.201,-0.2 6.004,-0.2c5.304,0.1 5.304,0.1 5.204,-0.2c0,-0.2 -0.1,-0.601 -0.1,-1.201c-0.1,-1.001 0.1,-1.401 0.4,-1.401c0.3,0.1 0.4,0.2 0.701,0.901c0.6,1.1 0.9,2.802 0.5,4.002c-0.2,1.101 -1.201,1.401 -3.102,1.401c-3.402,0.1 -9.406,-0.2 -10.207,-0.4c-0.2,-0.1 -0.5,-0.2 -0.5,-0.4c-0.301,-0.4 -0.301,-1.401 0,-1.901c0.3,-0.401 0.3,-0.401 1.1,-0.601M475.324,420.487c-1.902,0.5 -4.103,0.6 -6.705,-0.1c-1.401,-0.3 -1.701,-0.601 -2.502,-1.201c-0.4,-0.3 -1,-1.201 -1.1,-1.501c0,-0.2 -0.1,-0.4 -0.1,-0.4c-0.301,-2.202 1,-3.803 4.503,-4.704c2.601,-0.8 5.103,-0.4 6.304,0.101c2.202,0.7 2.802,1.701 3.102,3.102c0.801,3.702 -2.301,4.303 -3.502,4.703M475.324,397.271c-1.902,0.5 -4.103,0.6 -6.705,-0.1c-1.401,-0.3 -1.701,-0.6 -2.502,-1.201c-0.4,-0.3 -1,-1.201 -1.1,-1.501c0,-0.2 -0.1,-0.4 -0.1,-0.4c-0.301,-2.202 1,-3.803 4.503,-4.703c2.601,-0.801 5.103,-0.401 6.304,0.1c2.202,0.7 2.802,1.701 3.102,3.102c0.801,3.702 -2.301,4.303 -3.502,4.703M466.918,460.014c-0.5,0.7 -1.601,0.4 -1.801,0.3c-0.601,-0.4 -0.501,-1.801 0,-2.502c0.1,-0.1 0.3,-0.1 0.7,-0.1c0.701,0 1.001,0.1 1.301,0.601c0.1,0.5 0,1.301 -0.2,1.701M464.316,359.445c0.1,-0.1 0.3,-0.3 0.3,-0.4c0.201,-0.2 0.201,-0.2 0.101,-0.901c-0.201,-0.9 -0.201,-2.301 0,-2.901c0.2,-1.101 0.8,-1.602 1.4,-1.301c0.601,0.2 2.002,1.901 2.702,3.302c0.2,0.3 0.301,0.5 0.301,0.3c0,-0.2 0.8,-0.8 1.501,-1.101c0.3,-0.2 2.101,-1.1 2.801,-1.401c0.701,-0.4 3.103,-1.801 3.403,-1.901c0.5,-0.3 0.8,-0.3 0.9,-0.1c0.201,0.3 0.201,1.001 0,1.301c-0.2,0.6 -2.001,1.801 -5.403,3.402c-1.301,0.601 -1.301,0.601 2.201,0.601c1.901,0.1 3.603,0.1 3.603,0.2c0.1,0 0.2,0.2 0.3,0.4c0.2,0.4 0.2,1.801 0,2.302c-0.2,0.6 -0.2,0.6 -4.803,0.5c-5.504,-0.1 -8.106,-0.2 -8.606,-0.3c-0.3,-0.1 -0.701,-0.401 -0.801,-0.701c0,-0.3 0,-1.101 0.1,-1.301M463.816,442.602c-0.4,1.001 -0.901,0.901 -1.301,-0.701c-0.3,-0.4 -0.6,-1.3 -0.901,-1.801c-0.5,-1 -0.7,-1.501 -0.7,-2.401c0,-1.802 0.6,-1.802 1.501,-0.1c1.001,2.001 1.701,4.102 1.401,5.003M92.663,392.468c-1.501,0.1 -11.007,-0.901 -14.209,-1.601c-0.901,-0.3 -4.003,-1.001 -4.103,-1.101c-0.1,0 -0.3,-0.2 -0.4,-0.5c-0.301,-0.501 -0.1,-2.102 0.1,-2.602c0.1,-0.4 0.3,-0.4 0.9,-0.4c0.401,-0.1 0.801,-0.301 0.901,-0.301c0.4,-0.4 1.401,-0.6 4.803,-1.3c1.201,-0.401 2.202,-0.701 2.202,-0.701c0.1,0 0.3,-0.2 0.3,-0.5c-0.2,-0.901 0.5,-1.201 0.9,-0.501c0.301,0.401 0.401,0.501 0.501,0.501c0.3,0.1 0.8,-0.1 4.803,-1.501c0.801,-0.301 1.501,-0.501 1.601,-0.501c0.3,0 0.4,0.601 0.4,1.401c0,1.101 -0.1,1.301 -2.201,1.902c-4.103,1.1 -3.803,1.3 -3.803,1.3c0,0 0,0.201 0.1,0.601c0.301,0.6 0.301,0.7 1.101,0.8c0.601,0.1 2.102,0.301 3.302,0.401c3.603,0.4 4.103,0.6 4.203,2.101c0,1.701 -0.3,2.402 -1.401,2.502M92.763,403.976c-0.6,0.7 -3.102,0.7 -4.002,0.7c-2.302,0.4 -5.704,0.4 -10.507,0.2c-1.602,0 -1.602,0 -2.102,-0.4c-0.7,-0.7 -0.8,-2.001 -0.3,-3.202c0.4,-1.101 0.4,-1.001 3.102,-0.901c1.001,-0.1 1.801,-0.1 1.801,-0.1c0.1,0 -0.2,-2.401 -0.1,-2.802c0,-0.7 0.2,-0.7 -2.702,-0.9c-2.802,-0.301 -2.802,-0.301 -3.002,-0.501c-0.1,-0.2 -0.3,-0.5 -0.3,-0.6c0,-1.301 0.2,-2.302 0.701,-2.502c0.3,-0.1 2.801,0.2 8.405,0.501c7.205,0.7 7.806,0.7 8.306,0.9c1.301,0.3 0.5,1.501 0.4,1.701c-0.3,0.2 -1.901,0.801 -2.802,0.801c-0.7,0.2 -4.303,0.2 -6.204,0.1c-1.301,0 -1.301,0 -1.201,0.4c0.1,0.701 0.1,2.702 0,2.802c-0.2,0.2 0.1,0.3 3.403,0.3c3.402,-0.1 5.804,-0.1 6.504,-0.3c0.4,0 0.6,0.1 0.901,0.2c0.6,0.4 0.6,2.602 -0.301,3.603M84.758,429.493c-3.202,-0.3 -3.502,-0.4 -6.805,-0.4c-3.202,-0.1 -3.602,-0.1 -3.902,-0.601c-0.1,-0.3 0,-1.401 0.1,-1.601c0.3,-0.3 1,-0.5 6.404,-0.5c6.905,-0.1 7.405,-0.1 9.206,0.8c3.202,1.401 2.602,5.904 2.402,7.005c-0.3,1.401 -0.901,2.002 -2.602,2.402c-1.501,0.5 -13.509,0.5 -14.31,0c-0.5,-0.2 -0.8,-0.901 -0.7,-1.901c0,-0.901 0.1,-1.501 0.7,-1.702c0.501,-0.2 2.602,-0.4 6.905,-0.5c3.603,-0.1 6.104,-0.2 6.905,-0.5c0.8,-0.1 1.301,-0.401 1.201,-0.501c-1.201,-2.101 -3.202,-1.701 -5.504,-2.001M74.051,416.484c0.1,-1.501 0.3,-1.801 0.7,-1.701c0.5,0.1 0.601,0.5 0.5,2.702c-0.1,1.101 -0.1,2.201 -0.1,2.301c0.1,0 1.301,0.1 2.702,0c0.401,-0.1 0.401,-0.1 0.501,-1.401c0,-1.3 0.2,-1.901 0.5,-2.001c0.1,-0.1 0.3,0.1 0.4,0.1c0.3,0.2 0.801,1.801 0.901,2.602c0.1,0.8 0.1,0.8 1.601,0.8c3.202,0.201 6.204,-0.3 6.905,-0.4c0.9,-0.2 1.1,0 1.1,-0.4c0,-0.4 0.1,-2.702 0.301,-2.902c0.4,-0.6 0.8,-0.701 1.3,0c0.801,1.101 0.901,2.402 0.901,4.303c0,2.602 -1.601,3.502 -2.001,3.602c-0.701,0.301 -2.302,0.601 -3.403,0.701c-0.7,0.1 -4.903,0.3 -7.705,0.1c-3.802,-0.3 -4.603,-0.5 -4.803,-0.901c-0.2,-0.5 -0.5,-3.002 -0.4,-4.403c0,-1.1 0.1,-2.301 0.1,-3.102M91.963,446.805c-1.201,2.602 -4.103,2.802 -5.904,2.802c-7.605,-0.1 -9.507,-2.602 -9.507,-2.602c0,0 -0.4,-0.2 -1,-0.5c-0.901,-0.701 -1.401,-1.401 -1.701,-1.902c-0.101,-1.1 0,-2.001 0.2,-2.201c0.2,-0.2 0.3,-0.2 0.5,-0.1c0.1,0.1 0.2,0.1 0.2,0.1c0,0 0.1,-0.2 0.3,-0.4c0.801,-1.401 1.802,-2.602 3.703,-3.103c5.804,-1.701 8.005,0 9.406,0.301c0.901,0.3 1.001,0.3 1.501,-0.201c0.701,-0.7 1.802,-1.3 2.002,-1.2c0.5,0 0.4,1.2 -0.1,1.801c-0.1,0.1 -0.501,0.3 -0.601,0.5c-0.2,0.3 -0.2,0.3 0.2,0.901c0.2,0.3 0.501,0.9 0.701,1.301c0.8,1.601 0.5,4.002 0.1,4.503M92.263,456.611c-0.2,4.904 -4.403,4.403 -5.103,4.103c-1.201,-0.5 -1.802,-1.201 -3.002,-2.301c-1.001,-1.201 -1.802,-1.802 -2.802,-2.002c-0.901,-0.1 -1.201,-0.1 -1.001,0.501c0.1,0.7 -0.2,1 -0.701,1.301c-0.9,0.3 -1.4,-0.101 -1.3,-1.201c-0.301,-2.802 2.001,-3.403 2.601,-3.303c1.401,-0.1 3.603,0.501 5.304,1.502c2.201,1.901 3.903,0.3 4.103,0c0.9,-2.002 -1.101,-2.202 -1.401,-2.202c-0.701,0.1 -1.201,-1.501 -0.501,-1.801c1.401,-0.701 2.302,0.2 2.702,0.8c1.201,1.802 1.101,3.803 1.101,4.603M76.853,457.512c-0.701,0.901 -2.102,0.5 -2.302,0.4c-0.7,-0.5 -0.7,-2.301 -0.1,-3.202c0.1,-0.1 0.4,-0.1 0.8,-0.2c0.801,-0.1 1.301,0.2 1.702,0.801c0.3,0.7 0.2,1.701 -0.1,2.201M73.55,377.057c0.1,-0.1 0.301,-0.4 0.401,-0.5c0.2,-0.2 0.2,-0.2 0.1,-1.201c-0.2,-1.201 -0.2,-2.902 0,-3.702c0.3,-1.401 1,-2.002 1.801,-1.702c0.8,0.201 2.602,2.502 3.402,4.203c0.2,0.401 0.4,0.701 0.4,0.401c0,-0.301 1.101,-1.001 1.902,-1.401c0.4,-0.201 2.702,-1.401 3.502,-1.802c0.901,-0.5 4.003,-2.301 4.303,-2.501c0.701,-0.401 1.001,-0.401 1.201,-0.1c0.2,0.4 0.2,1.301 0,1.701c-0.2,0.8 -2.602,2.201 -6.905,4.403c-1.601,0.8 -1.601,0.8 2.802,0.8c2.502,0.1 4.603,0.1 4.603,0.2c0.1,0 0.2,0.201 0.401,0.501c0.2,0.5 0.2,2.201 0,2.902c-0.301,0.8 -0.301,0.8 -6.105,0.7c-7.104,-0.1 -10.407,-0.2 -11.007,-0.4c-0.4,-0.1 -0.901,-0.5 -1.001,-0.901c0.1,-0.3 0.1,-1.3 0.2,-1.601M72.55,423.389c-0.501,1.301 -1.101,1.101 -1.601,-0.801c-0.301,-0.5 -0.801,-1.701 -1.101,-2.301c-0.701,-1.301 -0.901,-1.902 -0.901,-3.102c0,-2.302 0.801,-2.302 2.002,-0.2c1.1,2.501 1.901,5.203 1.601,6.404M73.951,309.111c0.4,-4.903 4.703,-4.103 5.303,-3.803c1.201,0.601 1.801,1.301 2.802,2.502c0.901,1.301 1.601,1.901 2.702,2.102c0.901,0.1 1.201,0.1 1.001,-0.501c0,-0.7 0.3,-1 0.7,-1.301c0.901,-0.2 1.401,0.201 1.301,1.301c0.1,2.802 -2.202,3.202 -2.802,3.102c-1.401,0 -3.502,-0.7 -5.203,-1.801c-2.002,-2.001 -3.903,-0.5 -4.103,-0.2c-1.001,1.901 0.9,2.202 1.301,2.202c0.7,0 1.1,1.501 0.4,1.901c-1.401,0.6 -2.202,-0.3 -2.602,-0.901c-1.201,-1.801 -0.9,-3.702 -0.8,-4.603M89.361,309.111c0.701,-0.8 2.102,-0.4 2.402,-0.2c0.7,0.6 0.6,2.301 -0.1,3.202c-0.1,0.1 -0.401,0.1 -0.801,0.1c-0.8,0 -1.301,-0.2 -1.601,-0.8c-0.4,-0.701 -0.3,-1.802 0.1,-2.302M91.663,324.321c-1.101,1.201 -2.402,1.602 -3.002,1.602c-0.501,0 -0.701,-0.101 -0.901,-0.301c-0.3,-0.3 -0.4,-1.401 -0.1,-1.801c0.2,-0.4 1.101,-1.201 1.601,-1.501c0.801,-0.5 1.201,-1.001 1.201,-1.101c0,-0.1 -0.701,-0.3 -1.401,-0.2c-0.5,0 -1.901,0.601 -2.702,1.201c-0.2,0.1 -2.902,1.701 -3.903,2.101c-4.503,1.802 -6.304,0.901 -7.104,0.101c-0.501,-0.401 -1.201,-1.401 -1.401,-2.302c-0.1,-0.3 -0.1,-0.901 -0.1,-1.701c-0.101,-2.702 1.3,-3.302 1.901,-3.503c0.4,-0.2 1.301,-0.2 1.701,0c1.601,1.602 0.3,2.402 -0.3,2.502c-0.901,0.1 -1.501,0.3 -1.701,0.5c-0.1,0.101 -0.1,0.201 0.1,0.401c1.901,1.601 3.702,1 3.902,0.9c0.901,-0.2 4.704,-2.201 5.904,-3.002c2.902,-1.801 4.303,-2.101 5.404,-1c0.801,0.9 1.101,1.2 1.301,2.001c1.001,2.001 0.2,4.203 -0.4,5.103M80.155,327.624c3.402,-1.001 6.504,-0.501 8.105,0.1c2.802,0.9 3.603,2.201 4.003,4.002c1.001,4.804 -3.002,5.704 -4.503,6.105c-2.402,0.7 -5.204,0.7 -8.506,-0.201c-1.801,-0.3 -2.201,-0.8 -3.202,-1.501c-0.6,-0.4 -1.301,-1.501 -1.401,-2.001c0,-0.2 -0.1,-0.5 -0.1,-0.6c-0.6,-2.702 1.101,-4.804 5.604,-5.904M92.163,354.642c-0.3,0.801 -0.7,0.901 -3.903,1.001l-6.704,0c-4.904,-0.1 -4.403,-0.1 -5.804,0c-1.101,0 -1.201,0 -1.401,-0.3c-0.4,-0.701 -0.3,-1.201 -0.3,-1.602c0,-0.9 0.3,-1.501 0.7,-1.601c0.2,-0.1 0.3,-0.1 0.2,-0.3c-0.9,-1.801 0.4,-2.101 0.501,-2.401c0.2,-0.301 2.201,-0.701 2.501,-1.201c0.1,-0.401 0,-0.401 -0.4,-0.601c-0.4,-0.2 -2.502,-1.1 -2.702,-1.601c-0.7,-1.101 -0.2,-2.502 0.1,-2.902c0.4,-0.7 1.401,-1.101 3.002,-1.401c2.402,-0.3 8.506,-1.401 9.307,-1.501c2.201,-0.4 2.701,-0.3 3.002,0.401c0.4,1.1 0.2,2.801 -0.2,3.202c-0.701,0.3 -2.002,0.3 -2.702,0.4c-0.501,0.1 -9.407,1.101 -9.707,1.201c-0.2,0.1 -0.1,0.1 0.1,0.3c2.302,0.4 3.002,1.401 3.002,1.501c0.2,0.3 0.501,1.601 0,2.202c-0.5,0.7 -2.201,0.8 -3.302,1.2c-1.001,0.301 -0.901,0.301 -0.5,0.501c0.4,0.2 0.5,0.2 1.901,0.1c2.001,-0.1 12.508,-0.2 12.809,-0.2c1,0.9 0.8,3.002 0.5,3.602M74.051,358.545c0.1,-1.501 0.3,-1.802 0.7,-1.701c0.5,0.1 0.601,0.5 0.5,2.701c-0.1,1.101 -0.1,2.202 -0.1,2.302c0.1,0 1.301,0.1 2.702,0c0.401,-0.1 0.401,-0.1 0.501,-1.401c0,-1.301 0.2,-1.901 0.5,-2.001c0.1,-0.1 0.3,0.1 0.4,0.1c0.3,0.2 0.801,1.801 0.901,2.601c0.1,0.801 0.1,0.801 1.601,0.801c3.202,0.2 6.204,-0.3 6.905,-0.4c0.9,-0.2 1.1,0 1.1,-0.401c0,-0.4 0.1,-2.701 0.301,-2.901c0.4,-0.601 0.8,-0.701 1.3,0c0.801,1.1 0.901,2.401 0.901,4.302c0,2.602 -1.601,3.503 -2.001,3.603c-0.701,0.3 -2.302,0.6 -3.403,0.7c-0.7,0.1 -4.903,0.301 -7.705,0.1c-3.802,-0.3 -4.603,-0.5 -4.803,-0.9c-0.2,-0.5 -0.5,-3.002 -0.4,-4.403c0,-1.101 0.1,-2.402 0.1,-3.102M464.616,306.409c0.301,-3.802 3.703,-3.202 4.103,-3.002c0.901,0.501 1.401,1.001 2.202,1.901c0.7,1.001 1.301,1.502 2.101,1.702c0.701,0.1 0.901,0.1 0.801,-0.401c0,-0.5 0.2,-0.8 0.6,-1c0.701,-0.2 1.101,0.2 1.001,1c0.1,2.202 -1.701,2.502 -2.202,2.402c-1.1,0 -2.802,-0.5 -4.102,-1.401c-1.602,-1.601 -3.103,-0.4 -3.203,-0.2c-0.8,1.501 0.701,1.801 1.001,1.801c0.5,0 0.901,1.201 0.3,1.501c-1.101,0.501 -1.801,-0.3 -2.001,-0.7c-0.901,-1.401 -0.601,-3.002 -0.601,-3.603M476.725,306.409c0.5,-0.6 1.701,-0.3 1.901,-0.2c0.5,0.5 0.4,1.801 -0.1,2.502c-0.1,0.1 -0.3,0.1 -0.701,0.1c-0.7,0 -1,-0.2 -1.3,-0.701c-0.201,-0.5 -0.1,-1.3 0.2,-1.701M478.526,318.217c-0.901,0.901 -1.901,1.301 -2.302,1.301c-0.4,0 -0.5,-0.1 -0.7,-0.2c-0.2,-0.2 -0.3,-1.101 -0.1,-1.401c0.2,-0.3 0.8,-0.901 1.301,-1.201c0.6,-0.4 0.9,-0.8 0.9,-0.9c0,-0.1 -0.5,-0.201 -1.1,-0.201c-0.401,0 -1.501,0.501 -2.102,0.901c-0.2,0.1 -2.301,1.301 -3.002,1.601c-3.502,1.401 -4.903,0.701 -5.504,0.1c-0.4,-0.3 -0.9,-1.101 -1.1,-1.801c-0.101,-0.2 -0.101,-0.7 -0.101,-1.301c-0.1,-2.101 1.001,-2.602 1.502,-2.802c0.3,-0.2 1,-0.2 1.3,0c1.201,1.201 0.301,1.902 -0.2,1.902c-0.7,0.1 -1.201,0.3 -1.301,0.4c-0.1,0.1 -0.1,0.2 0.1,0.3c1.501,1.301 2.902,0.801 3.003,0.701c0.7,-0.201 3.702,-1.802 4.603,-2.302c2.301,-1.401 3.402,-1.601 4.203,-0.801c0.6,0.701 0.9,0.901 1,1.501c0.601,1.802 0,3.503 -0.4,4.203M469.52,320.819c2.602,-0.8 5.103,-0.4 6.304,0.1c2.202,0.701 2.802,1.701 3.102,3.102c0.801,3.803 -2.401,4.403 -3.502,4.804c-1.901,0.5 -4.103,0.6 -6.705,-0.101c-1.401,-0.3 -1.701,-0.6 -2.501,-1.2c-0.401,-0.301 -1.001,-1.201 -1.101,-1.501c0,-0.201 -0.1,-0.401 -0.1,-0.401c-0.401,-2.301 0.9,-3.902 4.503,-4.803M478.826,342.033c-0.2,0.601 -0.6,0.701 -3.102,0.801l-5.304,0c-3.802,-0.1 -3.402,-0.1 -4.503,0c-0.8,0 -0.9,0 -1.1,-0.2c-0.301,-0.5 -0.201,-0.901 -0.201,-1.201c0,-0.7 0.201,-1.201 0.601,-1.301c0.2,-0.1 0.3,-0.1 0.2,-0.2c-0.7,-1.401 0.3,-1.601 0.4,-1.901c0.2,-0.2 1.701,-0.501 2.002,-1.001c0.1,-0.3 0,-0.3 -0.301,-0.5c-0.3,-0.2 -1.901,-0.801 -2.101,-1.301c-0.6,-0.901 -0.2,-1.901 0.1,-2.302c0.3,-0.5 1.101,-0.8 2.302,-1.1c1.901,-0.201 6.704,-1.101 7.305,-1.201c1.801,-0.301 2.101,-0.2 2.301,0.3c0.3,0.8 0.1,2.201 -0.2,2.502c-0.5,0.2 -1.601,0.2 -2.101,0.3c-0.401,0.1 -7.405,0.8 -7.606,0.9c-0.2,0.1 -0.1,0.1 0.1,0.301c1.802,0.3 2.302,1.1 2.302,1.2c0.2,0.201 0.4,1.201 0,1.802c-0.4,0.6 -1.701,0.7 -2.602,1c-0.8,0.2 -0.7,0.2 -0.4,0.401c0.3,0.2 0.4,0.2 1.501,0.1c1.601,-0.1 9.807,-0.201 10.007,-0.201c0.9,0.601 0.7,2.202 0.4,2.802M464.717,344.935c0.1,-1.2 0.2,-1.4 0.5,-1.4c0.4,0 0.5,0.4 0.4,2.101c-0.1,0.901 -0.1,1.701 -0.1,1.801c0.1,0 1.001,0.1 2.101,0c0.301,-0.1 0.301,-0.1 0.401,-1.101c0,-1 0.1,-1.501 0.4,-1.601c0.1,-0.1 0.2,0 0.3,0c0.2,0.1 0.601,1.401 0.701,2.102c0,0.6 0,0.6 1.201,0.6c2.501,0.1 4.903,-0.2 5.403,-0.3c0.701,-0.1 0.801,0 0.801,-0.3c0,-0.3 0.1,-2.102 0.2,-2.302c0.3,-0.5 0.7,-0.6 1.001,0c0.6,0.901 0.7,1.902 0.7,3.403c0,2.101 -1.201,2.701 -1.501,2.801c-0.5,0.301 -1.801,0.401 -2.702,0.601c-0.5,0.1 -3.802,0.2 -6.004,0c-3.002,-0.3 -3.602,-0.4 -3.802,-0.701c-0.201,-0.4 -0.401,-2.401 -0.301,-3.502c0.2,-0.6 0.301,-1.501 0.301,-2.202M884.102,309.011c0.6,-0.7 2.001,-0.3 2.201,-0.2c0.601,0.6 0.501,2.201 -0.1,2.902c-0.1,0.1 -0.3,0.1 -0.8,0.1c-0.801,0 -1.201,-0.2 -1.501,-0.801c-0.2,-0.6 -0.1,-1.601 0.2,-2.001M886.203,322.92c-1,1.101 -2.301,1.502 -2.802,1.502c-0.5,0 -0.6,-0.101 -0.8,-0.301c-0.3,-0.3 -0.4,-1.301 -0.1,-1.701c0.2,-0.4 1.001,-1.101 1.501,-1.401c0.7,-0.5 1.101,-0.9 1.101,-1c0,-0.101 -0.601,-0.301 -1.301,-0.201c-0.501,0 -1.801,0.601 -2.502,1.101c-0.2,0.1 -2.702,1.501 -3.602,1.901c-4.103,1.702 -5.804,0.801 -6.505,0.1c-0.5,-0.4 -1.1,-1.3 -1.301,-2.101c-0.1,-0.3 -0.1,-0.8 -0.1,-1.601c-0.1,-2.402 1.201,-3.102 1.802,-3.302c0.4,-0.2 1.2,-0.2 1.601,0c1.401,1.401 0.3,2.201 -0.301,2.301c-0.8,0.1 -1.401,0.3 -1.601,0.501c-0.1,0.1 -0.1,0.2 0.1,0.4c1.802,1.501 3.403,0.9 3.603,0.8c0.8,-0.2 4.403,-2.101 5.404,-2.801c2.701,-1.702 4.002,-1.902 4.903,-0.901c0.7,0.8 1.001,1.101 1.201,1.801c1,2.102 0.2,4.103 -0.301,4.903M875.596,326.023c3.102,-0.901 6.004,-0.401 7.405,0.1c2.602,0.8 3.302,2.001 3.603,3.702c0.9,4.503 -2.802,5.204 -4.203,5.604c-2.202,0.6 -4.803,0.7 -7.805,-0.2c-1.702,-0.3 -2.002,-0.701 -3.003,-1.401c-0.5,-0.4 -1.2,-1.401 -1.3,-1.801c0,-0.2 -0.1,-0.401 -0.1,-0.501c-0.301,-2.601 1.3,-4.503 5.403,-5.503M870.593,348.638c0.2,-0.1 0.3,-0.1 0.2,-0.3c-0.801,-1.701 0.4,-1.901 0.5,-2.202c0.2,-0.3 2.002,-0.6 2.302,-1.1c0.1,-0.401 0,-0.401 -0.3,-0.601c-0.301,-0.2 -2.302,-1.001 -2.502,-1.501c-0.701,-1.001 -0.2,-2.301 0.1,-2.702c0.4,-0.6 1.301,-1 2.802,-1.301c2.201,-0.3 7.905,-1.301 8.606,-1.401c2.101,-0.4 2.501,-0.3 2.802,0.401c0.4,1 0.2,2.601 -0.201,3.002c-0.6,0.2 -1.801,0.3 -2.401,0.4c-0.501,0.1 -8.706,1.001 -9.006,1.101c-0.201,0.1 -0.1,0.1 0.1,0.3c2.101,0.3 2.702,1.301 2.702,1.401c0.2,0.3 0.5,1.501 0,2.101c-0.501,0.601 -2.002,0.801 -3.003,1.201c-0.9,0.3 -0.9,0.3 -0.5,0.5c0.4,0.201 0.5,0.201 1.801,0.101c1.902,-0.101 11.508,-0.201 11.808,-0.201c0.901,0.701 0.701,2.602 0.401,3.203c-0.3,0.7 -0.701,0.8 -3.603,0.9l-6.204,0c-4.503,-0.1 -4.103,-0.1 -5.304,0c-1,0 -1.1,0 -1.3,-0.3c-0.401,-0.6 -0.301,-1.101 -0.301,-1.501c-0.2,-0.801 0.101,-1.401 0.501,-1.501M46.232,478.226l1188.31,0l0,-189.129l-1188.31,0l0,189.129Z" style="fill:#fff;fill-rule:nonzero;"/><path d="M873.294,403.275c-0.5,-0.3 -0.5,-0.5 -1.101,-0.3c-0.8,0 -0.8,0 -0.8,0.6c-0.1,0.601 -0.1,0.601 1.1,0.3c1.301,-0.1 1.301,-0.1 0.801,-0.6" style="fill:#fff;fill-rule:nonzero;"/><g transform="matrix(1,0,0,1,0,-10.32)"><text x="110.362px" y="323.61px" style="font-family:'Avenir-Book';font-size:18.012px;fill:#808282;">R<tspan x="121.744px 132.458px 140.832px 152.537px 163.918px 174.633px 186.339px 197.054px 203.734px 215.285px 225.334px 230.357px 241.908px 246.931px 251.954px 262.003px 278.049px 288.097px 299.803px 311.184px 322.736px 334.441px 345.156px " y="323.61px 323.61px 323.61px 323.61px 323.61px 323.61px 323.61px 323.61px 323.61px 323.61px 323.61px 323.61px 323.61px 323.61px 323.61px 323.61px 323.61px 323.61px 323.61px 323.61px 323.61px 323.61px 323.61px ">esponder al llamado del</tspan></text><text x="110.362px" y="342.61px" style="font-family:'Avenir-Book';font-size:18.012px;fill:#808282;">P<tspan x="121.401px 131.45px 143.155px 153.204px 183.551px 194.266px 200.946px 210.995px 221.71px 231.092px 236.114px 244.488px 253.87px 265.251px 270.958px 301.306px 313.012px 323.727px 328.75px 339.464px " y="342.61px 342.61px 342.61px 342.61px 342.61px 342.61px 342.61px 342.61px 342.61px 342.61px 342.61px 342.61px 342.61px 342.61px 342.61px 342.61px 342.61px 342.61px 342.61px 342.61px ">apa Francisco, quien</tspan></text><text x="110.362px" y="361.61px" style="font-family:'Avenir-Book';font-size:18.012px;fill:#808282;">i<tspan x="115.385px 131.432px 143.137px 153.852px 158.875px 167.248px 177.297px 206.808px 216.857px 246.369px 253.049px 264.43px 276.135px 287.517px 295.89px 325.402px 330.425px 341.806px " y="361.61px 361.61px 361.61px 361.61px 361.61px 361.61px 361.61px 361.61px 361.61px 361.61px 361.61px 361.61px 361.61px 361.61px 361.61px 361.61px 361.61px 361.61px ">mpulsa a todos los</tspan></text><text x="110.362px" y="380.61px" style="font-family:'Avenir-Book';font-size:18.012px;fill:#808282;">c<tspan x="119.744px 129.793px 136.473px 147.854px 152.877px 157.9px 167.282px 178.663px 187.036px 208.15px 218.198px 239.312px 247.685px 257.733px 262.756px 267.779px 274.459px 295.573px 305.621px 326.735px 331.758px 341.806px " y="380.61px 380.61px 380.61px 380.61px 380.61px 380.61px 380.61px 380.61px 380.61px 380.61px 380.61px 380.61px 380.61px 380.61px 380.61px 380.61px 380.61px 380.61px 380.61px 380.61px 380.61px 380.61px ">atólicos a salir a las</tspan></text><text x="110.362px" y="399.61px" style="font-family:'Avenir-Book';font-size:18.012px;fill:#808282;">p<tspan x="122.068px 132.783px 139.463px 144.486px 150.517px 161.232px 167.912px 172.935px 182.984px 191.357px 206.178px 216.226px 222.906px 233.621px 240.301px 246.981px 252.004px 258.684px 270.066px 276.746px 281.769px 291.817px 296.84px 307.555px 315.928px 325.976px 340.797px " y="399.61px 399.61px 399.61px 399.61px 399.61px 399.61px 399.61px 399.61px 399.61px 399.61px 399.61px 399.61px 399.61px 399.61px 399.61px 399.61px 399.61px 399.61px 399.61px 399.61px 399.61px 399.61px 399.61px 399.61px 399.61px 399.61px 399.61px ">eriferias &quot;territoriales&quot; y</tspan></text><text x="110.362px" y="418.61px" style="font-family:'Avenir-Book';font-size:18.012px;fill:#808282;">&quot;<tspan x="120.411px 131.126px 140.507px 145.53px 153.904px 160.584px 171.299px 182.013px 191.395px 196.418px 206.467px 211.49px 222.204px 230.578px 240.626px 246.334px 255.58px 267.285px 277.333px 284.014px 294.062px 303.308px 308.331px 313.354px 324.069px 333.451px 343.499px " y="418.61px 418.61px 418.61px 418.61px 418.61px 418.61px 418.61px 418.61px 418.61px 418.61px 418.61px 418.61px 418.61px 418.61px 418.61px 418.61px 418.61px 418.61px 418.61px 418.61px 418.61px 418.61px 418.61px 418.61px 418.61px 418.61px 418.61px ">existenciales&quot;, para llevar</tspan></text><text x="110.362px" y="437.61px" style="font-family:'Avenir-Book';font-size:18.012px;fill:#808282;">e<tspan x="121.077px 126.1px 147.004px 158.71px 170.091px 178.464px 189.846px 210.75px 222.456px 233.17px 238.193px 259.098px 270.479px 279.861px 289.909px 300.624px 312.33px 323.045px 328.068px 333.09px 344.472px " y="437.61px 437.61px 437.61px 437.61px 437.61px 437.61px 437.61px 437.61px 437.61px 437.61px 437.61px 437.61px 437.61px 437.61px 437.61px 437.61px 437.61px 437.61px 437.61px 437.61px 437.61px ">l gozo del Evangelio,</tspan></text><text x="110.362px" y="456.61px" style="font-family:'Avenir-Book';font-size:18.012px;fill:#808282;">c<tspan x="119.744px 130.459px 146.506px 158.211px 163.234px 168.257px 178.972px 189.687px 201.392px 212.773px 221.529px 231.577px 239.95px 244.973px 253.729px 264.444px 275.158px 285.873px 294.246px 300.927px 307.282px 318.664px 327.419px 333.775px 345.156px " y="456.61px 456.61px 456.61px 456.61px 456.61px 456.61px 456.61px 456.61px 456.61px 456.61px 456.61px 456.61px 456.61px 456.61px 456.61px 456.61px 456.61px 456.61px 456.61px 456.61px 456.61px 456.61px 456.61px 456.61px 456.61px ">umpliendo así nuestro rol</tspan></text><text x="110.362px" y="475.61px" style="font-family:'Avenir-Book';font-size:18.012px;fill:#808282;">m<tspan x="126.409px 131.432px 139.805px 144.828px 156.209px 166.924px 177.639px 183.995px 195.376px " y="475.61px 475.61px 475.61px 475.61px 475.61px 475.61px 475.61px 475.61px 475.61px ">isionero.</tspan></text></g><g transform="matrix(1,0,0,1,0,-4.32)"><text x="497.105px" y="323.276px" style="font-family:'Avenir-Book';font-size:18.012px;fill:#808282;">M<tspan x="513.486px 523.851px 535.206px 539.879px 549.578px 559.942px 566.273px 576.637px 583.907px 588.58px 598.279px 605.549px 614.581px 625.612px 635.977px 644px 650.33px 656.66px 667.025px 676.057px 685.089px 689.762px 700.793px 711.158px 718.428px 729.783px " y="323.276px 323.276px 323.276px 323.276px 323.276px 323.276px 323.276px 323.276px 323.276px 323.276px 323.276px 323.276px 323.276px 323.276px 323.276px 323.276px 323.276px 323.276px 323.276px 323.276px 323.276px 323.276px 323.276px 323.276px 323.276px 323.276px ">ediante la construcción de</tspan></text><text x="497.105px" y="343.276px" style="font-family:'Avenir-Book';font-size:18.012px;fill:#808282;">c<tspan x="506.137px 515.835px 527.191px 531.864px 536.537px 541.21px 550.908px 558.931px 572.662px 583.027px 593.392px 607.123px 611.796px 621.494px 635.226px 646.581px 656.946px 663.276px 667.949px 673.631px 683.995px 690.325px 694.998px 704.697px 718.428px 729.783px " y="343.276px 343.276px 343.276px 343.276px 343.276px 343.276px 343.276px 343.276px 343.276px 343.276px 343.276px 343.276px 343.276px 343.276px 343.276px 343.276px 343.276px 343.276px 343.276px 343.276px 343.276px 343.276px 343.276px 343.276px 343.276px 343.276px ">apillas en la periferia de</tspan></text><text x="497.105px" y="363.276px" style="font-family:'Avenir-Book';font-size:18.012px;fill:#808282;">d<tspan x="508.461px 513.133px 521.157px 527.487px 532.16px 542.525px 548.855px 558.553px 566.576px 574.211px 583.243px 587.916px 598.281px 609.636px 619.334px 630.69px 641.055px 649.078px 656.713px 666.411px 674.045px 678.718px 689.75px 697.384px 702.057px 711.756px 717.761px 729.117px " y="363.276px 363.276px 363.276px 363.276px 363.276px 363.276px 363.276px 363.276px 363.276px 363.276px 363.276px 363.276px 363.276px 363.276px 363.276px 363.276px 363.276px 363.276px 363.276px 363.276px 363.276px 363.276px 363.276px 363.276px 363.276px 363.276px 363.276px 363.276px ">istintas ciudades a lo largo</tspan></text><text x="497.105px" y="383.276px" style="font-family:'Avenir-Book';font-size:18.012px;fill:#808282;">d<tspan x="508.461px 518.825px 550.465px 563.496px 573.861px 578.534px 583.207px 593.571px 598.929px 630.569px 641.924px 648.254px 652.927px 661.959px 666.632px 671.305px 681.67px 693.025px 697.698px 707.397px 717.761px 729.117px " y="383.276px 383.276px 383.276px 383.276px 383.276px 383.276px 383.276px 383.276px 383.276px 383.276px 383.276px 383.276px 383.276px 383.276px 383.276px 383.276px 383.276px 383.276px 383.276px 383.276px 383.276px 383.276px ">e Chile, privilegiando</tspan></text><text x="497.105px" y="403.276px" style="font-family:'Avenir-Book';font-size:18.012px;fill:#808282;">l<tspan x="501.778px 512.143px 523.498px 533.197px 539.203px 549.567px 557.591px 618.456px 627.487px 638.519px 648.884px 709.748px 719.447px 724.12px 730.45px " y="403.276px 403.276px 403.276px 403.276px 403.276px 403.276px 403.276px 403.276px 403.276px 403.276px 403.276px 403.276px 403.276px 403.276px 403.276px ">ugares con alta</tspan></text><text x="497.105px" y="423.276px" style="font-family:'Avenir-Book';font-size:18.012px;fill:#808282;">v<tspan x="506.137px 516.502px 521.175px 531.54px 541.904px 548.234px 557.933px 569.288px 573.961px 578.634px 583.307px 594.663px 604.361px 615.717px 636.356px 645.388px 666.027px 677.383px 687.748px 698.113px 718.752px 729.117px " y="423.276px 423.276px 423.276px 423.276px 423.276px 423.276px 423.276px 423.276px 423.276px 423.276px 423.276px 423.276px 423.276px 423.276px 423.276px 423.276px 423.276px 423.276px 423.276px 423.276px 423.276px 423.276px ">ulnerabilidad y que no</tspan></text><text x="497.105px" y="443.276px" style="font-family:'Avenir-Book';font-size:18.012px;fill:#808282;">c<tspan x="506.137px 516.502px 526.867px 537.231px 543.562px 553.926px 564.291px 576.321px 585.353px 596.385px 606.749px 618.78px 628.478px 637.51px 646.542px 656.907px 664.93px 675.961px 687.992px 697.69px 709.72px 720.085px 730.45px " y="443.276px 443.276px 443.276px 443.276px 443.276px 443.276px 443.276px 443.276px 443.276px 443.276px 443.276px 443.276px 443.276px 443.276px 443.276px 443.276px 443.276px 443.276px 443.276px 443.276px 443.276px 443.276px 443.276px ">uenten con acceso a una</tspan></text><text x="497.105px" y="463.276px" style="font-family:'Avenir-Book';font-size:18.012px;fill:#808282;">c<tspan x="506.137px 515.835px 527.191px 531.864px 536.537px 541.21px 550.908px 556.587px 567.618px 573.297px 582.995px 588.674px 599.039px 609.404px 615.083px 619.756px 630.121px 641.476px 651.175px 657.505px 663.184px 674.539px 684.904px 690.583px 699.615px 709.98px 714.652px 720.983px 732.014px " y="463.276px 463.276px 463.276px 463.276px 463.276px 463.276px 463.276px 463.276px 463.276px 463.276px 463.276px 463.276px 463.276px 463.276px 463.276px 463.276px 463.276px 463.276px 463.276px 463.276px 463.276px 463.276px 463.276px 463.276px 463.276px 463.276px 463.276px 463.276px 463.276px ">apilla o a un lugar de culto.</tspan></text></g><g transform="matrix(1,0,0,1,0,-0.48)"><text x="903.915px" y="323.42px" style="font-family:'Avenir-Book';font-size:18.012px;fill:#808282;">Q<tspan x="918.287px 927.652px 937.017px 954.647px 958.32px 967.019px 984.649px 992.681px 1002.71px 1017.41px 1026.77px 1036.14px 1039.81px 1050.17px 1058.87px 1069.22px 1086.85px 1094.88px 1098.56px 1105.58px 1109.25px 1114.58px 1123.28px 1133.64px 1142.33px 1159.96px 1168px 1185.63px 1189.3px 1199.33px " y="323.42px 323.42px 323.42px 323.42px 323.42px 323.42px 323.42px 323.42px 323.42px 323.42px 323.42px 323.42px 323.42px 323.42px 323.42px 323.42px 323.42px 323.42px 323.42px 323.42px 323.42px 323.42px 323.42px 323.42px 323.42px 323.42px 323.42px 323.42px 323.42px 323.42px ">ue la comunidad visitada y los</tspan></text><text x="903.915px" y="342.42px" style="font-family:'Avenir-Book';font-size:18.012px;fill:#808282;">v<tspan x="911.947px 921.978px 925.651px 935.016px 944.381px 949.711px 958.409px 963.739px 967.412px 977.444px 984.467px 1006.29px 1016.65px 1026.01px 1035.38px 1045.73px 1054.43px 1063.8px 1085.62px 1093.65px 1103.69px 1118.38px 1128.74px 1137.44px 1142.77px 1148.1px 1151.77px 1157.1px 1178.93px 1188.29px 1197.66px " y="342.42px 342.42px 342.42px 342.42px 342.42px 342.42px 342.42px 342.42px 342.42px 342.42px 342.42px 342.42px 342.42px 342.42px 342.42px 342.42px 342.42px 342.42px 342.42px 342.42px 342.42px 342.42px 342.42px 342.42px 342.42px 342.42px 342.42px 342.42px 342.42px 342.42px 342.42px ">oluntarios puedan compartir una</tspan></text><text x="903.915px" y="361.42px" style="font-family:'Avenir-Book';font-size:18.012px;fill:#808282;">e<tspan x="913.28px 921.312px 931.667px 941.032px 946.362px 950.035px 959.4px 968.765px 976.797px 980.47px 989.168px 995.226px 1000.23px 1009.6px 1018.3px 1021.97px 1028.03px 1038.38px 1047.75px 1053.81px 1063.17px 1072.54px 1080.57px 1089.93px 1099.3px 1108.66px 1113.99px 1119px 1129.03px 1135.09px 1143.12px 1153.15px 1162.51px 1168.57px 1181.27px 1184.94px 1194.97px 1202px " y="361.42px 361.42px 361.42px 361.42px 361.42px 361.42px 361.42px 361.42px 361.42px 361.42px 361.42px 361.42px 361.42px 361.42px 361.42px 361.42px 361.42px 361.42px 361.42px 361.42px 361.42px 361.42px 361.42px 361.42px 361.42px 361.42px 361.42px 361.42px 361.42px 361.42px 361.42px 361.42px 361.42px 361.42px 361.42px 361.42px 361.42px 361.42px ">xperiencia real de encuentro con Dios.</tspan></text><text x="903.915px" y="380.42px" style="font-family:'Avenir-Book';font-size:18.012px;fill:#808282;">P<tspan x="913.604px 922.302px 927.633px 936.331px 952.773px 962.138px 969.162px 974.492px 984.523px 988.88px 1005.32px 1009px 1019.03px 1026.05px 1042.49px 1050.53px 1060.56px 1064.23px 1073.59px 1082.96px 1088.29px 1096.99px 1102.32px 1105.99px 1116.02px 1123.05px 1139.49px 1149.84px 1159.21px 1166.23px 1174.26px 1182.96px 1188.29px 1196.99px " y="380.42px 380.42px 380.42px 380.42px 380.42px 380.42px 380.42px 380.42px 380.42px 380.42px 380.42px 380.42px 380.42px 380.42px 380.42px 380.42px 380.42px 380.42px 380.42px 380.42px 380.42px 380.42px 380.42px 380.42px 380.42px 380.42px 380.42px 380.42px 380.42px 380.42px 380.42px 380.42px 380.42px 380.42px ">ara esto, los voluntarios buscarán</tspan></text><text x="903.915px" y="399.42px" style="font-family:'Avenir-Book';font-size:18.012px;fill:#808282;">i<tspan x="907.588px 916.953px 924.985px 935.016px 938.689px 948.054px 956.086px 961.416px 970.114px 975.444px 981.449px 990.148px 996.153px 999.826px 1008.52px 1015.55px 1021.55px 1026.23px 1034.93px 1049.63px 1053.3px 1056.97px 1060.65px 1069.35px 1076.37px 1082.38px 1092.73px 1102.1px 1108.1px 1111.77px 1120.47px 1126.48px 1133.5px 1143.53px 1152.9px 1161.6px 1167.6px 1172.93px 1181.63px 1190.99px 1196.32px " y="399.42px 399.42px 399.42px 399.42px 399.42px 399.42px 399.42px 399.42px 399.42px 399.42px 399.42px 399.42px 399.42px 399.42px 399.42px 399.42px 399.42px 399.42px 399.42px 399.42px 399.42px 399.42px 399.42px 399.42px 399.42px 399.42px 399.42px 399.42px 399.42px 399.42px 399.42px 399.42px 399.42px 399.42px 399.42px 399.42px 399.42px 399.42px 399.42px 399.42px 399.42px ">nvolucrar a las familias de la zona tanto</tspan></text><text x="903.915px" y="418.42px" style="font-family:'Avenir-Book';font-size:18.012px;fill:#808282;">e<tspan x="913.28px 922.645px 927.975px 931.648px 940.347px 945.677px 953.709px 963.74px 973.105px 980.128px 985.458px 990.789px 1000.15px 1008.19px 1016.22px 1019.89px 1029.92px 1039.29px 1044.62px 1054.97px 1064.34px 1069.67px 1073.34px 1082.04px 1087.37px 1095.4px 1104.1px 1114.46px 1118.13px 1121.8px 1125.47px 1134.17px 1139.5px 1147.54px 1157.57px 1172.26px 1182.29px 1187.62px 1196.99px " y="418.42px 418.42px 418.42px 418.42px 418.42px 418.42px 418.42px 418.42px 418.42px 418.42px 418.42px 418.42px 418.42px 418.42px 418.42px 418.42px 418.42px 418.42px 418.42px 418.42px 418.42px 418.42px 418.42px 418.42px 418.42px 418.42px 418.42px 418.42px 418.42px 418.42px 418.42px 418.42px 418.42px 418.42px 418.42px 418.42px 418.42px 418.42px 418.42px ">n la construcción de la capilla como en</tspan></text><text x="903.915px" y="437.42px" style="font-family:'Avenir-Book';font-size:18.012px;fill:#808282;">l<tspan x="907.588px 916.286px 923.31px 932.567px 941.266px 949.297px 954.628px 958.301px 966.332px 970.005px 980.361px 989.059px 999.415px 1008.78px 1015.8px 1025.06px 1030.07px 1039.43px 1047.46px 1052.47px 1061.83px 1070.53px 1075.86px 1079.54px 1087.57px 1096.27px 1103.29px 1112.55px 1120.58px 1129.84px 1134.52px 1144.55px 1150.2px 1164.9px 1173.6px 1178.93px 1182.6px 1190.63px 1199.33px " y="437.42px 437.42px 437.42px 437.42px 437.42px 437.42px 437.42px 437.42px 437.42px 437.42px 437.42px 437.42px 437.42px 437.42px 437.42px 437.42px 437.42px 437.42px 437.42px 437.42px 437.42px 437.42px 437.42px 437.42px 437.42px 437.42px 437.42px 437.42px 437.42px 437.42px 437.42px 437.42px 437.42px 437.42px 437.42px 437.42px 437.42px 437.42px 437.42px ">as actividades recreativas y formativas</tspan></text><text x="903.915px" y="456.42px" style="font-family:'Avenir-Book';font-size:18.012px;fill:#808282;">r<tspan x="908.921px 918.286px 926.984px 930.657px 934.33px 941.353px 950.052px 960.407px 969.106px 976.129px " y="456.42px 456.42px 456.42px 456.42px 456.42px 456.42px 456.42px 456.42px 456.42px 456.42px ">ealizadas.</tspan></text></g><g><text x="771.621px" y="222.334px" style="font-family:'Avenir-Book';font-size:19.013px;fill:#fff;">El cr<tspan x="807.879px 818.45px " y="222.334px 222.334px ">ec</tspan>imiento de las urbes no ha ido acompañado</text><text x="771.621px" y="241.346px" style="font-family:'Avenir-Book';font-size:19.013px;fill:#fff;">con un desarr<tspan x="886.782px 898.057px " y="241.346px 241.346px ">ol</tspan>lo paralelo de la Iglesia Católica en</text><text x="771.621px" y="260.359px" style="font-family:'Avenir-Book';font-size:19.013px;fill:#fff;">estas nuevas zonas.</text></g><g><text x="377.06px" y="140.062px" style="font-family:'Avenir-Book';font-size:19.013px;fill:#fff;">L<tspan x="386.767px 396.834px 405.134px 418.915px 430.732px 437.245px 442.008px 452.779px 462.143px 466.906px 478.723px 488.791px 493.554px 504.325px 512.625px 526.406px 535.77px 540.534px 551.305px 563.122px 573.189px 585.006px 595.777px 604.077px 617.858px 629.675px 640.447px 645.21px 658.991px 670.808px 680.876px 685.639px 693.938px 707.72px 718.491px 728.559px 739.33px 753.112px 759.624px 770.395px 781.167px 785.93px 797.746px 809.221px 823.003px 833.774px " y="140.062px 140.062px 140.062px 140.062px 140.062px 140.062px 140.062px 140.062px 140.062px 140.062px 140.062px 140.062px 140.062px 140.062px 140.062px 140.062px 140.062px 140.062px 140.062px 140.062px 140.062px 140.062px 140.062px 140.062px 140.062px 140.062px 140.062px 140.062px 140.062px 140.062px 140.062px 140.062px 140.062px 140.062px 140.062px 140.062px 140.062px 140.062px 140.062px 140.062px 140.062px 140.062px 140.062px 140.062px 140.062px 140.062px ">as principales ciudades del país han tenido un</tspan></text><text x="377.06px" y="159.075px" style="font-family:'Avenir-Book';font-size:19.013px;fill:#fff;">c<tspan x="386.424px 392.594px 403.366px 412.73px 417.493px 433.892px 438.655px 449.426px 460.197px 466.71px 478.184px 482.944px 494.761px 505.532px 521.931px 533.406px 545.223px 551.735px 561.803px 567.63px 572.393px 581.758px 593.232px 597.992px 607.356px 618.128px 624.64px 631.152px 635.915px 647.732px 652.495px 663.266px 674.741px 683.04px 694.515px 700.001px 704.761px 718.688px 728.756px 738.12px 742.88px 753.651px 770.05px 780.821px 786.991px 798.808px 809.579px 820.35px 829.714px 834.477px " y="159.075px 159.075px 159.075px 159.075px 159.075px 159.075px 159.075px 159.075px 159.075px 159.075px 159.075px 159.075px 159.075px 159.075px 159.075px 159.075px 159.075px 159.075px 159.075px 159.075px 159.075px 159.075px 159.075px 159.075px 159.075px 159.075px 159.075px 159.075px 159.075px 159.075px 159.075px 159.075px 159.075px 159.075px 159.075px 159.075px 159.075px 159.075px 159.075px 159.075px 159.075px 159.075px 159.075px 159.075px 159.075px 159.075px 159.075px 159.075px 159.075px 159.075px ">recimiento demográfico vertiginoso. Hay emergencia</tspan></text><text x="377.06px" y="178.088px" style="font-family:'Avenir-Book';font-size:19.013px;fill:#fff;">d<tspan x="388.877px 399.648px 410.357px 419.721px 431.196px 437.366px 449.183px 460.657px 471.428px 482.199px 490.499px 501.208px 511.979px 522.046px 533.863px 538.626px 545.139px 555.206px 564.571px 569.334px 580.808px 591.579px 601.647px 606.41px 617.181px 625.481px 636.19px 646.257px 658.074px 668.845px 675.358px 680.121px 685.948px 696.72px 703.232px 707.995px 717.359px 728.834px 737.133px 747.201px 757.91px 767.977px 772.74px 779.253px 789.32px 805.719px 816.491px 827.262px 833.774px " y="178.088px 178.088px 178.088px 178.088px 178.088px 178.088px 178.088px 178.088px 178.088px 178.088px 178.088px 178.088px 178.088px 178.088px 178.088px 178.088px 178.088px 178.088px 178.088px 178.088px 178.088px 178.088px 178.088px 178.088px 178.088px 178.088px 178.088px 178.088px 178.088px 178.088px 178.088px 178.088px 178.088px 178.088px 178.088px 178.088px 178.088px 178.088px 178.088px 178.088px 178.088px 178.088px 178.088px 178.088px 178.088px 178.088px 178.088px 178.088px 178.088px ">e cordones habitacionales “periféricos” altamente</tspan></text><text x="377.06px" y="197.101px" style="font-family:'Avenir-Book';font-size:19.013px;fill:#fff;">p<tspan x="388.877px 400.352px 412.169px 416.932px 426.999px 438.816px 450.291px 458.59px " y="197.101px 197.101px 197.101px 197.101px 197.101px 197.101px 197.101px 197.101px ">oblados.</tspan></text></g><g transform="matrix(1,0,0,1,-342.6,-94.305)"><text x="377.06px" y="140.062px" style="font-family:'Avenir-Book';font-size:19.013px;fill:#fff;">&quot;<tspan x="387.128px 397.899px 407.967px 412.73px 417.493px 424.005px 429.491px 441.308px 452.079px 457.564px 465.864px 470.627px 476.113px 492.512px 497.275px 505.574px 521.973px 533.448px 541.747px 547.233px 558.004px 563.49px 568.253px 574.765px 580.251px 590.318px 595.804px 600.567px 610.635px 618.934px 624.42px 636.237px 647.008px 653.52px 658.283px 664.111px 674.882px 681.394px 686.158px 696.225px 704.525px 710.01px 715.496px 727.313px 738.084px 744.596px 749.359px 755.187px 765.958px 772.471px 777.234px 787.301px " y="140.062px 140.062px 140.062px 140.062px 140.062px 140.062px 140.062px 140.062px 140.062px 140.062px 140.062px 140.062px 140.062px 140.062px 140.062px 140.062px 140.062px 140.062px 140.062px 140.062px 140.062px 140.062px 140.062px 140.062px 140.062px 140.062px 140.062px 140.062px 140.062px 140.062px 140.062px 140.062px 140.062px 140.062px 140.062px 140.062px 140.062px 140.062px 140.062px 140.062px 140.062px 140.062px 140.062px 140.062px 140.062px 140.062px 140.062px 140.062px 140.062px 140.062px 140.062px 140.062px ">Salir de sí mismos e ir a las periferias, periferias</tspan></text><text x="377.06px" y="159.075px" style="font-family:'Avenir-Book';font-size:19.013px;fill:#fff;">g<tspan x="388.877px 399.648px 411.123px 422.94px 429.452px 439.52px 445.347px 450.111px 459.475px 469.542px 477.842px 483.328px 492.692px 498.177px 508.245px 513.731px 518.494px 528.561px 536.861px 542.347px 553.118px 562.482px 567.245px 575.545px 582.057px 592.828px 603.599px 612.963px 617.726px 627.794px 632.557px 643.328px 651.628px 657.113px 662.599px 674.416px 684.484px 690.996px 701.064px 706.549px 716.617px 727.388px 738.159px 748.93px 758.295px 763.058px 773.125px 779.638px 785.123px " y="159.075px 159.075px 159.075px 159.075px 159.075px 159.075px 159.075px 159.075px 159.075px 159.075px 159.075px 159.075px 159.075px 159.075px 159.075px 159.075px 159.075px 159.075px 159.075px 159.075px 159.075px 159.075px 159.075px 159.075px 159.075px 159.075px 159.075px 159.075px 159.075px 159.075px 159.075px 159.075px 159.075px 159.075px 159.075px 159.075px 159.075px 159.075px 159.075px 159.075px 159.075px 159.075px 159.075px 159.075px 159.075px 159.075px 159.075px 159.075px 159.075px ">eográficas y a las existenciales, para anunciar a</tspan></text><text x="377.06px" y="178.088px" style="font-family:'Avenir-Book';font-size:19.013px;fill:#fff;">J<tspan x="386.424px 397.195px 405.495px 416.266px 424.566px 430.051px 439.415px 444.901px 455.672px 465.74px 475.104px 485.875px 492.388px 497.873px 507.237px 518.712px 529.483px 540.958px 550.322px 561.093px 567.606px 573.091px 581.391px 592.162px 597.647px 614.046px 624.818px 635.589px 643.888px 653.956px 658.719px 669.49px 674.976px 680.461px 685.947px " y="178.088px 178.088px 178.088px 178.088px 178.088px 178.088px 178.088px 178.088px 178.088px 178.088px 178.088px 178.088px 178.088px 178.088px 178.088px 178.088px 178.088px 178.088px 178.088px 178.088px 178.088px 178.088px 178.088px 178.088px 178.088px 178.088px 178.088px 178.088px 178.088px 178.088px 178.088px 178.088px 178.088px 178.088px 178.088px ">esús y hacer conocer su mensaje...&quot;</tspan></text><text x="377.06px" y="197.101px" style="font-family:'Avenir-Black';font-size:19.013px;fill:#fff;">S<tspan x="388.174px 394.001px 405.115px 410.943px 416.77px 428.245px 436.183px 446.593px 457.707px 467.071px 472.214px 481.217px 490.581px " y="197.101px 197.101px 197.101px 197.101px 197.101px 197.101px 197.101px 197.101px 197.101px 197.101px 197.101px 197.101px 197.101px ">.S. Francisco</tspan></text></g><path d="M368.951,385.563c19.613,0.4 39.127,0.2 58.74,-0.4c7.105,-0.2 10.607,-10.407 3.803,-14.01c-9.407,-5.003 -19.614,-10.107 -25.618,-19.213c-3.903,3.002 -7.905,6.104 -11.808,9.106c4.803,4.804 10.007,9.107 15.511,13.109c2.601,1.902 5.303,3.603 8.005,5.304c1.801,1.101 6.404,2.802 7.105,4.303c-0.3,-1.301 -0.701,-2.502 -1.001,-3.803c0,1.401 -3.802,5.204 -4.703,6.304c-1.801,2.402 -3.702,4.704 -5.604,7.005c-3.902,4.603 -8.105,9.006 -12.508,13.209c-7.005,6.705 3.602,17.312 10.607,10.607c5.704,-5.503 11.007,-11.207 16.011,-17.411c4.303,-5.404 12.308,-13.109 11.107,-20.715c-1.2,-7.605 -9.906,-10.206 -15.61,-13.809c-6.605,-4.203 -12.609,-9.106 -18.213,-14.71c-5.904,-5.804 -16.611,1.801 -11.808,9.106c7.606,11.408 19.113,18.313 31.021,24.517c1.301,-4.703 2.502,-9.306 3.803,-14.01c-19.613,0.701 -39.127,0.801 -58.74,0.401c-9.707,-0.1 -9.707,14.91 -0.1,15.11" style="fill:#fbe900;fill-rule:nonzero;"/><path d="M761.618,390.166l81.455,0c9.307,0 11.608,-11.808 4.504,-16.711c-11.909,-8.106 -23.717,-16.311 -35.625,-24.417c-3.002,5.103 -6.004,10.307 -9.006,15.41c10.307,5.104 20.514,11.708 28.019,20.615c-0.8,-1.301 -1.501,-2.602 -2.301,-3.903c0.1,0.3 0.3,0.7 0.4,1.001l0,-4.804c-0.1,0.401 -0.2,0.901 -0.4,1.301c0.8,-1.301 1.501,-2.602 2.301,-3.902c-8.506,10.607 -19.813,19.713 -30.42,28.219c-3.803,3.002 -3.203,9.506 0,12.608c3.702,3.703 8.906,3.002 12.608,0c6.605,-5.303 13.109,-10.907 19.213,-16.811c5.104,-4.903 14.21,-11.408 14.21,-19.113c0,-7.305 -8.806,-13.409 -13.91,-17.512c-6.404,-5.204 -13.309,-9.607 -20.714,-13.209c-10.407,-5.104 -18.512,8.906 -9.006,15.41c11.908,8.106 23.716,16.312 35.624,24.417c1.501,-5.604 3.002,-11.108 4.503,-16.711l-81.455,0c-11.508,0.3 -11.508,18.112 0,18.112" style="fill:#fbe900;fill-rule:nonzero;"/></g></g></g></svg>