<?xml version="1.0" standalone="no"?><!DOCTYPE svg PUBLIC "-//W3C//DTD SVG 1.1//EN" "http://www.w3.org/Graphics/SVG/1.1/DTD/svg11.dtd"><svg width="100%" height="100%" viewBox="0 0 150 150" version="1.1" xmlns="http://www.w3.org/2000/svg" xmlns:xlink="http://www.w3.org/1999/xlink" xml:space="preserve" style="fill-rule:evenodd;clip-rule:evenodd;stroke-linejoin:round;stroke-miterlimit:1.41421;"><clipPath id="_clip1"><rect id="Mesa de trabajo1" x="0" y="0" width="150" height="150"/></clipPath><g clip-path="url(#_clip1)"><g><g opacity="0.699997"><g><clipPath id="_clip2"><rect x="4.818" y="33.079" width="140.364" height="83.841"/></clipPath><g clip-path="url(#_clip2)"><path d="M134.444,50.385c0,2.058 -1.671,3.729 -3.73,3.729l-59.673,0c-2.059,0 -3.729,-1.671 -3.729,-3.729l0,-0.388c0,-2.059 1.67,-3.73 3.729,-3.73l59.673,0c2.059,0 3.73,1.671 3.73,3.73l0,0.388ZM134.444,75.194c0,2.059 -1.671,3.729 -3.73,3.729l-59.673,0c-2.059,0 -3.729,-1.67 -3.729,-3.729l0,-0.388c0,-2.059 1.67,-3.729 3.729,-3.729l59.673,0c2.059,0 3.73,1.67 3.73,3.729l0,0.388ZM134.444,100.003c0,2.059 -1.671,3.73 -3.73,3.73l-59.673,0c-2.059,0 -3.729,-1.671 -3.729,-3.73l0,-0.388c0,-2.058 1.67,-3.729 3.729,-3.729l59.673,0c2.059,0 3.73,1.671 3.73,3.729l0,0.388ZM57.241,87.338c0,2.341 -1.208,4.415 -3.028,5.609l0,-5.252c0,-4.042 -3.267,-7.309 -7.311,-7.309l-2.908,0l-5.102,8.204l-1.775,-3.147l3.132,-5.057l-3.864,0l-3.864,0l3.133,5.057l-1.774,3.147l-5.103,-8.204l-2.909,0c-4.043,0 -7.31,3.267 -7.31,7.309l0,4.804c-1.477,-1.238 -2.417,-3.088 -2.417,-5.161l0,-37.147c0,-3.714 2.999,-6.713 6.713,-6.713l27.659,0c3.715,0 6.713,2.999 6.713,6.713l0,37.147l0.015,0ZM137.726,33.079l-125.449,0c-4.117,0 -7.459,3.342 -7.459,7.459l0,68.923c0,4.118 3.342,7.46 7.459,7.46l125.449,0c4.118,0 7.459,-3.342 7.459,-7.46l0,-68.923c0,-4.117 -3.341,-7.459 -7.459,-7.459" style="fill:#fff;fill-rule:nonzero;"/><path d="M45.471,56.009l-8.936,0c-5.804,0 -10.712,4.744 -10.742,10.546c-0.014,5.879 4.744,10.638 10.622,10.623c5.804,-0.015 10.548,-4.939 10.548,-10.741l0,-8.936c0,-0.82 -0.656,-1.492 -1.492,-1.492" style="fill:#fff;fill-rule:nonzero;"/></g></g></g></g></g></svg>