<?xml version="1.0" standalone="no"?><!DOCTYPE svg PUBLIC "-//W3C//DTD SVG 1.1//EN" "http://www.w3.org/Graphics/SVG/1.1/DTD/svg11.dtd"><svg width="100%" height="100%" viewBox="0 0 150 150" version="1.1" xmlns="http://www.w3.org/2000/svg" xmlns:xlink="http://www.w3.org/1999/xlink" xml:space="preserve" style="fill-rule:evenodd;clip-rule:evenodd;stroke-linejoin:round;stroke-miterlimit:1.41421;"><clipPath id="_clip1"><rect id="Mesa de trabajo1" x="0" y="0" width="150" height="150"/></clipPath><g clip-path="url(#_clip1)"><g><clipPath id="_clip2"><rect x="5.262" y="8.39" width="142.39" height="122.674"/></clipPath><g clip-path="url(#_clip2)"><g opacity="0.699997"><clipPath id="_clip3"><rect x="5.262" y="8.389" width="142.39" height="122.675"/></clipPath><g clip-path="url(#_clip3)"><path d="M84.125,74.108l0,13.143c0,1.205 -0.986,2.191 -2.191,2.191l-10.952,0c-1.205,0 -2.191,-0.986 -2.191,-2.191l0,-13.143c0,-1.205 0.986,-2.19 2.191,-2.19l10.952,0c1.205,0 2.191,0.985 2.191,2.19M97.203,28.105l-41.185,0c-0.108,-1.511 0.068,-3.066 0.833,-4.424c3.244,-5.674 13.779,-6.529 19.782,-6.529c5.98,0 16.518,0.855 19.76,6.529c0.767,1.336 0.92,2.89 0.81,4.424M125.747,28.105l-19.737,0c0.108,-2.826 -0.352,-5.892 -1.994,-8.762c-4.381,-7.668 -14.24,-10.953 -27.383,-10.953c-13.143,0 -23.002,3.285 -27.383,10.953c-1.664,2.87 -2.125,5.936 -2.014,8.762l-20.067,0c-12.049,0 -21.907,9.858 -21.907,21.905l0,9.378l59.148,19.408l0,-4.688c0,-3.636 2.935,-6.571 6.572,-6.571l10.952,0c3.637,0 6.572,2.935 6.572,6.571l0,4.688l59.146,-19.408l0,-9.378c0,-12.047 -9.856,-21.905 -21.905,-21.905M88.506,83.396l0,3.855c0,3.637 -2.935,6.572 -6.572,6.572l-10.952,0c-3.637,0 -6.572,-2.935 -6.572,-6.572l0,-3.855l-59.148,-19.408l0,45.17c0,12.047 9.858,21.906 21.907,21.906l98.578,0c12.049,0 21.905,-9.859 21.905,-21.906l0,-45.17l-59.146,19.408Z" style="fill:#fff;fill-rule:nonzero;"/></g></g></g></g></g></svg>